<svg xmlns="http://www.w3.org/2000/svg" xmlns:xlink="http://www.w3.org/1999/xlink" width="1920" zoomAndPan="magnify" viewBox="0 0 1440 809.999993" height="1080" preserveAspectRatio="xMidYMid meet" version="1.0"><defs><clipPath id="a283fb95ba"><path d="M 1127 53.058594 L 1235 53.058594 L 1235 128 L 1127 128 Z M 1127 53.058594 " clip-rule="nonzero"/></clipPath><clipPath id="50a05489f4"><path d="M 207 733 L 324 733 L 324 757.308594 L 207 757.308594 Z M 207 733 " clip-rule="nonzero"/></clipPath></defs><path fill="#f58634" d="M 616.300781 660.273438 C 616.300781 660.628906 616.132812 660.964844 615.847656 661.175781 L 571.152344 694.527344 C 570.847656 694.753906 570.449219 694.816406 570.089844 694.679688 L 509.390625 672.757812 C 509.027344 672.621094 508.753906 672.3125 508.671875 671.9375 L 505.273438 656.757812 C 505.199219 656.414062 505.285156 656.058594 505.511719 655.789062 L 507.316406 653.605469 C 507.570312 653.292969 507.648438 652.867188 507.5 652.484375 L 484.378906 591.472656 C 484.125 590.808594 484.542969 590.074219 485.242188 589.953125 L 540.617188 580.289062 C 541.042969 580.214844 541.480469 580.386719 541.730469 580.738281 C 552.074219 595.347656 555.34375 630.667969 555.941406 638.539062 C 556.003906 639.269531 556.035156 639.761719 556.050781 639.980469 C 556.0625 640.0625 556.078125 640.152344 556.097656 640.234375 L 557.390625 644.488281 C 557.496094 644.839844 557.773438 645.121094 558.121094 645.234375 L 587.863281 654.957031 C 587.921875 654.980469 587.984375 654.988281 588.046875 655 L 615.105469 659.117188 L 615.347656 659.152344 C 615.625 659.191406 615.859375 659.335938 616.035156 659.53125 C 616.203125 659.734375 616.308594 659.988281 616.308594 660.273438 Z M 616.300781 660.273438 " fill-opacity="1" fill-rule="nonzero"/><path fill="#c73f29" d="M 615.097656 659.117188 L 568.28125 691.953125 L 510.414062 671.476562 L 507.234375 657.945312 L 508.914062 656.65625 L 513.101562 658.796875 L 520.726562 652.117188 L 555.941406 638.539062 C 556.003906 639.269531 556.035156 639.761719 556.050781 639.980469 C 556.0625 640.0625 556.078125 640.152344 556.097656 640.234375 L 557.390625 644.488281 C 557.496094 644.839844 557.773438 645.121094 558.121094 645.234375 L 587.863281 654.957031 C 587.921875 654.980469 587.984375 654.988281 588.046875 655 L 615.105469 659.117188 Z M 615.097656 659.117188 " fill-opacity="1" fill-rule="nonzero"/><path fill="#fce8cf" d="M 612.808594 658.773438 L 567.757812 690.167969 L 512.34375 670.828125 L 509.476562 659.003906 L 508.90625 656.648438 C 515.992188 655.785156 520.503906 649.773438 516.855469 637.523438 C 513.203125 625.277344 498.0625 607.449219 498.0625 607.449219 L 562.210938 591.546875 C 566.578125 593.121094 567.15625 597.777344 567.15625 597.777344 L 574.742188 596.59375 C 585.292969 619.402344 573.550781 632.34375 569.511719 635.90625 C 568.851562 636.488281 568.398438 636.820312 568.28125 636.902344 L 568.253906 636.925781 C 568.4375 636.882812 571.5625 636.136719 577.910156 634.992188 C 584.460938 633.808594 590.902344 634.558594 590.902344 634.558594 L 605.132812 627.3125 C 605.132812 627.3125 605.996094 630.585938 603.949219 632.042969 C 601.910156 633.492188 588.265625 641.386719 588.265625 641.386719 C 588.265625 641.386719 590.359375 642.027344 595.734375 645.734375 C 601.101562 649.4375 609.3125 650.945312 609.3125 650.945312 L 612.800781 658.757812 Z M 612.808594 658.773438 " fill-opacity="1" fill-rule="nonzero"/><path fill="#0a0905" d="M 509.652344 659.949219 C 509.53125 659.949219 509.421875 659.851562 509.421875 659.722656 C 509.421875 659.59375 509.519531 659.484375 509.648438 659.480469 C 516.035156 659.269531 520.644531 656.988281 523.351562 652.695312 C 531.78125 639.324219 519.347656 610.523438 519.21875 610.234375 C 519.195312 610.171875 519.195312 610.101562 519.21875 610.039062 C 519.25 609.976562 519.308594 609.933594 519.375 609.917969 L 567.09375 597.5625 C 567.214844 597.53125 567.34375 597.601562 567.378906 597.730469 C 567.410156 597.855469 567.339844 597.984375 567.210938 598.019531 L 519.753906 610.300781 C 520.972656 613.195312 531.878906 640.050781 523.746094 652.949219 C 520.953125 657.378906 516.214844 659.738281 509.664062 659.953125 C 509.664062 659.953125 509.65625 659.953125 509.652344 659.953125 Z M 509.652344 659.949219 " fill-opacity="1" fill-rule="nonzero"/><path fill="#0a0905" d="M 510.804688 661.320312 C 510.238281 661.320312 509.960938 661.269531 509.929688 661.265625 C 509.800781 661.238281 509.71875 661.117188 509.746094 660.992188 C 509.769531 660.867188 509.890625 660.78125 510.019531 660.808594 C 510.042969 660.8125 512.871094 661.316406 519.894531 658.796875 C 526.996094 656.253906 567.765625 636.902344 568.175781 636.707031 C 568.296875 636.652344 568.433594 636.703125 568.492188 636.820312 C 568.546875 636.941406 568.496094 637.078125 568.378906 637.136719 C 567.964844 637.332031 527.175781 656.691406 520.046875 659.238281 C 515.015625 661.042969 512.125 661.324219 510.796875 661.324219 Z M 510.804688 661.320312 " fill-opacity="1" fill-rule="nonzero"/><path fill="#0a0905" d="M 510.410156 663.070312 C 510.289062 663.070312 510.1875 662.976562 510.175781 662.851562 C 510.167969 662.722656 510.257812 662.609375 510.386719 662.601562 C 515.742188 662.128906 518.835938 661.4375 522.109375 660.714844 C 524.472656 660.191406 526.917969 659.644531 530.386719 659.136719 C 536.886719 658.1875 543.144531 658.8125 547.285156 659.230469 C 548.410156 659.34375 549.382812 659.441406 550.101562 659.476562 C 552.65625 659.609375 576.105469 647.566406 588.160156 641.191406 C 588.273438 641.128906 588.417969 641.175781 588.476562 641.289062 C 588.539062 641.402344 588.492188 641.542969 588.378906 641.605469 C 586.960938 642.355469 553.699219 659.949219 550.132812 659.949219 C 550.117188 659.949219 550.101562 659.949219 550.085938 659.949219 C 549.355469 659.914062 548.378906 659.816406 547.25 659.703125 C 543.128906 659.285156 536.90625 658.660156 530.460938 659.605469 C 527.015625 660.109375 524.574219 660.652344 522.222656 661.171875 C 518.933594 661.902344 515.824219 662.589844 510.4375 663.070312 C 510.433594 663.070312 510.421875 663.070312 510.417969 663.070312 Z M 510.410156 663.070312 " fill-opacity="1" fill-rule="nonzero"/><path fill="#0a0905" d="M 550.097656 659.949219 C 550.003906 659.949219 549.921875 659.898438 549.878906 659.808594 C 549.828125 659.691406 549.878906 659.554688 550 659.5 C 558.261719 655.867188 558.253906 650.691406 558.253906 650.640625 C 558.253906 650.546875 558.308594 650.464844 558.382812 650.425781 L 590.800781 634.363281 C 590.917969 634.308594 591.058594 634.355469 591.113281 634.472656 C 591.171875 634.589844 591.125 634.730469 591.007812 634.785156 L 558.71875 650.785156 C 558.671875 651.710938 558.039062 656.480469 550.1875 659.933594 C 550.15625 659.949219 550.125 659.953125 550.097656 659.953125 Z M 550.097656 659.949219 " fill-opacity="1" fill-rule="nonzero"/><path fill="#0a0905" d="M 564 680.734375 C 564 680.734375 563.949219 680.734375 563.921875 680.722656 C 563.835938 680.691406 555.265625 677.710938 541.21875 668.988281 C 530.589844 662.394531 522.257812 663.515625 516.167969 664.335938 C 514.128906 664.609375 512.371094 664.847656 510.8125 664.773438 C 510.6875 664.769531 510.582031 664.65625 510.59375 664.527344 C 510.597656 664.398438 510.710938 664.296875 510.839844 664.308594 C 512.355469 664.378906 514.097656 664.140625 516.113281 663.875 C 522.273438 663.042969 530.703125 661.90625 541.472656 668.59375 C 554.628906 676.761719 562.953125 679.875 563.980469 680.238281 L 609.199219 650.757812 C 609.308594 650.6875 609.453125 650.71875 609.523438 650.828125 C 609.597656 650.933594 609.566406 651.078125 609.457031 651.148438 L 564.136719 680.691406 C 564.101562 680.71875 564.054688 680.726562 564.011719 680.726562 Z M 564 680.734375 " fill-opacity="1" fill-rule="nonzero"/><path fill="#0a0905" d="M 567.757812 690.398438 C 567.664062 690.398438 567.574219 690.34375 567.539062 690.25 L 563.785156 680.582031 C 563.738281 680.464844 563.792969 680.328125 563.917969 680.28125 C 564.035156 680.234375 564.175781 680.289062 564.222656 680.414062 L 567.976562 690.082031 C 568.023438 690.199219 567.964844 690.339844 567.84375 690.382812 C 567.816406 690.394531 567.785156 690.398438 567.757812 690.398438 Z M 567.757812 690.398438 " fill-opacity="1" fill-rule="nonzero"/><g clip-path="url(#a283fb95ba)"><path fill="#645b8f" d="M 1230.390625 76.09375 L 1229.707031 83.710938 C 1230.152344 83.757812 1230.535156 83.847656 1230.859375 83.96875 C 1232.210938 84.476562 1232.605469 86.207031 1231.660156 87.292969 L 1197.386719 126.707031 C 1196.453125 127.785156 1194.941406 128.140625 1193.621094 127.605469 L 1129.855469 101.472656 C 1128.601562 100.957031 1127.785156 99.730469 1127.796875 98.375 L 1127.871094 86.1875 C 1127.871094 85.320312 1128.222656 84.5 1128.816406 83.894531 C 1129 83.710938 1129.199219 83.539062 1129.425781 83.398438 L 1176.171875 53.910156 C 1176.957031 53.417969 1177.929688 53.269531 1178.828125 53.519531 L 1233.449219 68.605469 C 1233.929688 68.738281 1234.335938 69.042969 1234.613281 69.433594 C 1234.695312 69.550781 1234.761719 69.683594 1234.824219 69.820312 C 1234.949219 70.125 1235.011719 70.464844 1234.980469 70.816406 C 1234.933594 71.304688 1234.722656 71.761719 1234.378906 72.109375 L 1230.40625 76.097656 Z M 1230.390625 76.09375 " fill-opacity="1" fill-rule="nonzero"/></g><path fill="#54457e" d="M 1230.390625 76.09375 L 1229.707031 83.710938 C 1230.152344 83.757812 1230.535156 83.847656 1230.859375 83.96875 C 1232.210938 84.476562 1232.605469 86.207031 1231.660156 87.292969 L 1197.386719 126.707031 C 1196.453125 127.785156 1194.941406 128.140625 1193.621094 127.605469 L 1129.855469 101.472656 C 1128.601562 100.957031 1127.785156 99.730469 1127.796875 98.375 L 1127.871094 86.1875 C 1127.871094 85.320312 1128.222656 84.5 1128.816406 83.894531 L 1194.78125 107.414062 L 1234.820312 69.8125 C 1234.941406 70.121094 1235.003906 70.460938 1234.972656 70.808594 C 1234.929688 71.296875 1234.71875 71.757812 1234.371094 72.105469 L 1230.402344 76.09375 Z M 1230.390625 76.09375 " fill-opacity="1" fill-rule="nonzero"/><path fill="#fce8cf" d="M 1230.390625 76.09375 L 1197.65625 108.394531 C 1196.273438 109.757812 1194.226562 110.199219 1192.410156 109.527344 L 1134.140625 87.933594 C 1132.832031 87.453125 1131.433594 88.390625 1131.386719 89.785156 L 1131.152344 96.917969 C 1131.121094 97.78125 1131.640625 98.570312 1132.4375 98.886719 L 1192.121094 122.65625 C 1193.410156 123.171875 1194.886719 122.820312 1195.804688 121.785156 L 1229.703125 83.710938 L 1230.386719 76.09375 Z M 1230.390625 76.09375 " fill-opacity="1" fill-rule="nonzero"/><path fill="#54457e" d="M 1134.925781 83.796875 C 1134.785156 83.78125 1134.644531 83.707031 1134.558594 83.578125 C 1134.410156 83.351562 1134.476562 83.046875 1134.703125 82.898438 L 1177.488281 55.121094 C 1177.714844 54.972656 1178.015625 55.039062 1178.164062 55.261719 C 1178.316406 55.488281 1178.246094 55.792969 1178.023438 55.941406 L 1135.234375 83.71875 C 1135.136719 83.78125 1135.03125 83.808594 1134.925781 83.796875 Z M 1134.925781 83.796875 " fill-opacity="1" fill-rule="nonzero"/><path fill="#fce8cf" d="M 804.746094 303.402344 L 790.445312 298.199219 C 790.445312 298.199219 806.113281 288.9375 812.335938 281.363281 L 792.109375 274.359375 C 792.109375 274.359375 802.664062 273.496094 818.902344 262.304688 C 835.136719 251.117188 852.207031 252.707031 864.558594 258.816406 C 864.558594 258.816406 863.949219 253.980469 858.886719 251.378906 C 853.824219 248.773438 815.289062 237.667969 805.988281 229.007812 C 805.988281 229.007812 811.707031 232.6875 824.445312 234.070312 C 837.183594 235.453125 839.726562 233.589844 869.3125 246.425781 C 869.3125 246.425781 869.949219 228.761719 877.257812 208.117188 C 884.5625 187.46875 886.488281 179.191406 882.503906 167.453125 C 882.503906 167.453125 892.679688 177.027344 902.601562 193.828125 C 902.601562 193.828125 912.578125 185.066406 917.214844 171.949219 L 926.550781 180.851562 L 930.488281 175.21875 L 945.625 187.542969 L 950.816406 182.085938 L 957.203125 187.746094 L 935.925781 257.203125 L 871.460938 301.082031 L 804.746094 303.40625 Z M 804.746094 303.402344 " fill-opacity="1" fill-rule="nonzero"/><path fill="#f0c321" d="M 1019.324219 222.175781 L 956.535156 295.902344 C 956.535156 295.902344 957.570312 301.085938 952.910156 304.378906 C 948.25 307.667969 938.683594 309.367188 934.710938 309.109375 C 930.734375 308.855469 919.503906 304.414062 919.503906 304.414062 L 855.476562 326.589844 C 855.214844 326.675781 854.945312 326.703125 854.675781 326.65625 L 776.59375 312.886719 C 776.167969 312.816406 775.832031 312.601562 775.613281 312.3125 C 775.011719 311.542969 775.191406 310.261719 776.285156 309.824219 L 857.535156 277.703125 C 858.265625 277.414062 859.101562 277.703125 859.503906 278.375 L 862.40625 283.28125 C 862.761719 283.886719 863.484375 284.183594 864.175781 284.007812 L 882.089844 279.480469 C 882.6875 279.328125 883.144531 278.847656 883.269531 278.242188 L 884.859375 270.265625 C 885.054688 269.289062 885.496094 268.375 886.136719 267.613281 L 964.246094 174.019531 C 964.828125 173.332031 965.859375 173.253906 966.53125 173.839844 L 1019.152344 219.941406 C 1019.8125 220.515625 1019.882812 221.519531 1019.316406 222.183594 Z M 1019.324219 222.175781 " fill-opacity="1" fill-rule="nonzero"/><path fill="#bd962e" d="M 919.503906 304.40625 L 855.476562 326.585938 C 855.214844 326.671875 854.945312 326.699219 854.675781 326.652344 L 776.59375 312.882812 C 776.167969 312.8125 775.832031 312.59375 775.613281 312.308594 L 856.21875 279.984375 C 856.21875 279.984375 858.113281 288.417969 859.824219 289.148438 C 861.527344 289.867188 919.503906 304.40625 919.503906 304.40625 Z M 919.503906 304.40625 " fill-opacity="1" fill-rule="nonzero"/><path fill="#bd962e" d="M 954.0625 295.792969 C 953.945312 295.816406 953.816406 295.804688 953.691406 295.761719 L 889.117188 274.117188 C 888.699219 273.976562 888.472656 273.523438 888.617188 273.109375 C 888.753906 272.691406 889.207031 272.464844 889.625 272.609375 L 954.199219 294.257812 C 954.617188 294.394531 954.84375 294.847656 954.699219 295.265625 C 954.601562 295.558594 954.351562 295.753906 954.0625 295.800781 Z M 954.0625 295.792969 " fill-opacity="1" fill-rule="nonzero"/><path fill="#0a0905" d="M 865.046875 277.453125 C 864.832031 277.484375 864.632812 277.339844 864.597656 277.121094 C 863.746094 272.074219 860.941406 265.570312 855.621094 262.445312 C 851.8125 260.214844 847.230469 260.023438 842.007812 261.894531 C 826.785156 267.347656 812.757812 281.496094 812.617188 281.640625 C 812.464844 281.792969 812.210938 281.800781 812.058594 281.640625 C 811.902344 281.484375 811.898438 281.234375 812.058594 281.078125 C 812.195312 280.9375 826.347656 266.652344 841.746094 261.144531 C 847.203125 259.191406 852.007812 259.398438 856.023438 261.753906 C 861.589844 265.019531 864.507812 271.761719 865.386719 276.988281 C 865.421875 277.203125 865.277344 277.410156 865.0625 277.445312 L 865.058594 277.445312 Z M 865.046875 277.453125 " fill-opacity="1" fill-rule="nonzero"/><path fill="#0a0905" d="M 869.085938 275.730469 C 868.890625 275.761719 868.695312 275.636719 868.644531 275.441406 L 864.175781 258.917969 C 864.117188 258.707031 864.242188 258.488281 864.453125 258.429688 C 864.65625 258.367188 864.882812 258.496094 864.941406 258.707031 L 869.410156 275.230469 C 869.46875 275.441406 869.34375 275.664062 869.132812 275.71875 C 869.117188 275.71875 869.101562 275.726562 869.085938 275.730469 Z M 869.085938 275.730469 " fill-opacity="1" fill-rule="nonzero"/><path fill="#0a0905" d="M 860.121094 252.46875 C 859.980469 252.488281 859.832031 252.433594 859.738281 252.316406 C 852.824219 243.007812 842.710938 237.789062 829.675781 236.804688 C 812.433594 235.5 805.972656 229.546875 805.707031 229.296875 C 805.546875 229.144531 805.542969 228.894531 805.691406 228.734375 C 805.839844 228.574219 806.09375 228.570312 806.25 228.71875 C 806.3125 228.78125 812.808594 234.734375 829.734375 236.011719 C 842.820312 237 853.414062 242.472656 860.371094 251.84375 C 860.503906 252.015625 860.464844 252.269531 860.289062 252.398438 C 860.234375 252.4375 860.175781 252.464844 860.113281 252.46875 Z M 860.121094 252.46875 " fill-opacity="1" fill-rule="nonzero"/><path fill="#0a0905" d="M 872.390625 274.429688 C 872.195312 274.460938 872.003906 274.34375 871.949219 274.148438 C 869.257812 264.851562 868.910156 246.609375 868.910156 246.429688 C 868.910156 246.210938 869.082031 246.027344 869.300781 246.023438 C 869.523438 246.023438 869.703125 246.195312 869.707031 246.414062 C 869.707031 246.59375 870.050781 264.726562 872.714844 273.925781 C 872.777344 274.136719 872.652344 274.359375 872.441406 274.417969 C 872.425781 274.417969 872.40625 274.429688 872.390625 274.429688 Z M 872.390625 274.429688 " fill-opacity="1" fill-rule="nonzero"/><path fill="#0a0905" d="M 875.453125 273.96875 C 875.257812 273.996094 875.066406 273.875 875.011719 273.679688 C 874.964844 273.519531 870.710938 257.5625 878.292969 235.535156 C 886.878906 210.582031 902.152344 193.71875 902.304688 193.550781 C 902.453125 193.386719 902.707031 193.375 902.863281 193.523438 C 903.023438 193.671875 903.039062 193.925781 902.890625 194.085938 C 902.738281 194.25 887.574219 211.003906 879.042969 235.785156 C 871.546875 257.566406 875.730469 273.304688 875.777344 273.457031 C 875.832031 273.667969 875.710938 273.890625 875.5 273.945312 C 875.484375 273.945312 875.46875 273.953125 875.453125 273.957031 Z M 875.453125 273.96875 " fill-opacity="1" fill-rule="nonzero"/><path fill="#0a0905" d="M 878.261719 272.25 C 878.046875 272.28125 877.847656 272.136719 877.8125 271.921875 C 874.457031 251.363281 883.71875 227.808594 903.230469 207.292969 C 919.542969 190.136719 926.15625 180.71875 926.222656 180.625 C 926.351562 180.445312 926.597656 180.398438 926.777344 180.527344 C 926.957031 180.65625 927.003906 180.902344 926.875 181.082031 C 926.808594 181.175781 920.171875 190.636719 903.804688 207.84375 C 884.46875 228.179688 875.28125 251.488281 878.597656 271.796875 C 878.632812 272.015625 878.484375 272.21875 878.269531 272.253906 Z M 878.261719 272.25 " fill-opacity="1" fill-rule="nonzero"/><path fill="#0a0905" d="M 882.015625 269.835938 C 881.796875 269.867188 881.597656 269.722656 881.5625 269.507812 C 878.53125 250.773438 895.3125 234.941406 910.113281 220.972656 C 926.6875 205.34375 945.15625 187.429688 945.34375 187.25 C 945.503906 187.09375 945.753906 187.101562 945.902344 187.257812 C 946.058594 187.417969 946.050781 187.671875 945.890625 187.820312 C 945.707031 188 927.230469 205.921875 910.65625 221.554688 C 895.996094 235.386719 879.375 251.066406 882.339844 269.382812 C 882.375 269.597656 882.226562 269.804688 882.007812 269.839844 Z M 882.015625 269.835938 " fill-opacity="1" fill-rule="nonzero"/><path fill="#fce8cf" d="M 435.214844 634.144531 L 442.042969 637.5 C 442.042969 637.5 433.757812 641.257812 430.257812 644.691406 L 439.933594 649.265625 C 439.933594 649.265625 434.640625 649.125 425.964844 653.8125 C 417.292969 658.5 408.890625 656.789062 403.085938 653.085938 C 403.085938 653.085938 403.128906 655.523438 405.507812 657.089844 C 407.878906 658.660156 426.441406 666.253906 430.589844 671.066406 C 430.589844 671.066406 427.949219 668.925781 421.691406 667.554688 C 415.433594 666.183594 414.070312 666.96875 400.054688 658.992188 C 400.054688 658.992188 398.785156 667.738281 394.042969 677.609375 C 389.300781 687.476562 387.894531 691.484375 389.242188 697.539062 C 389.242188 697.539062 384.703125 692.230469 380.671875 683.34375 C 380.671875 683.34375 375.246094 687.160156 372.230469 693.425781 L 368.070312 688.5 L 365.808594 691.089844 L 358.949219 684.144531 L 356.078125 686.574219 L 353.210938 683.414062 L 367.53125 650.039062 L 401.933594 631.707031 L 435.222656 634.148438 Z M 435.214844 634.144531 " fill-opacity="1" fill-rule="nonzero"/><path fill="#645b8f" d="M 324.183594 662.945312 L 359.363281 629.6875 C 359.363281 629.6875 359.128906 627.050781 361.621094 625.667969 C 364.113281 624.285156 368.964844 623.957031 370.921875 624.296875 C 372.882812 624.640625 378.226562 627.453125 378.226562 627.453125 L 411.246094 619.882812 C 411.378906 619.851562 411.511719 619.855469 411.648438 619.890625 L 449.714844 630.945312 C 449.925781 631.003906 450.074219 631.132812 450.171875 631.285156 C 450.429688 631.703125 450.269531 632.328125 449.707031 632.488281 L 407.585938 644.074219 C 407.210938 644.175781 406.804688 643.992188 406.648438 643.632812 L 405.464844 641.035156 C 405.320312 640.71875 404.976562 640.527344 404.628906 640.578125 L 395.476562 641.863281 C 395.171875 641.910156 394.917969 642.121094 394.824219 642.417969 L 393.601562 646.292969 C 393.453125 646.769531 393.183594 647.199219 392.824219 647.542969 L 348.957031 689.851562 C 348.632812 690.164062 348.113281 690.144531 347.808594 689.8125 L 324.136719 664.058594 C 323.839844 663.738281 323.859375 663.238281 324.179688 662.933594 Z M 324.183594 662.945312 " fill-opacity="1" fill-rule="nonzero"/><path fill="#54457e" d="M 378.234375 627.453125 L 411.25 619.882812 C 411.382812 619.851562 411.519531 619.855469 411.652344 619.890625 L 449.722656 630.945312 C 449.929688 631.003906 450.082031 631.132812 450.179688 631.285156 L 408.367188 643.003906 C 408.367188 643.003906 407.886719 638.710938 407.074219 638.253906 C 406.261719 637.804688 378.234375 627.453125 378.234375 627.453125 Z M 378.234375 627.453125 " fill-opacity="1" fill-rule="nonzero"/><path fill="#54457e" d="M 360.589844 629.871094 C 360.648438 629.871094 360.710938 629.882812 360.773438 629.910156 L 391.707031 644.148438 C 391.90625 644.242188 391.992188 644.480469 391.902344 644.679688 C 391.808594 644.878906 391.570312 644.96875 391.371094 644.875 L 360.4375 630.632812 C 360.238281 630.539062 360.152344 630.304688 360.242188 630.105469 C 360.3125 629.964844 360.445312 629.878906 360.589844 629.871094 Z M 360.589844 629.871094 " fill-opacity="1" fill-rule="nonzero"/><path fill="#0a0905" d="M 403.847656 643.789062 C 403.953125 643.789062 404.046875 643.867188 404.050781 643.976562 C 404.203125 646.53125 405.246094 649.917969 407.726562 651.757812 C 409.5 653.070312 411.765625 653.410156 414.460938 652.765625 C 422.324219 650.878906 430.058594 644.597656 430.132812 644.535156 C 430.222656 644.464844 430.34375 644.480469 430.410156 644.5625 C 430.484375 644.644531 430.46875 644.773438 430.386719 644.839844 C 430.308594 644.902344 422.503906 651.238281 414.554688 653.148438 C 411.738281 653.828125 409.359375 653.460938 407.488281 652.074219 C 404.898438 650.152344 403.8125 646.644531 403.65625 644 C 403.652344 643.894531 403.734375 643.796875 403.839844 643.789062 Z M 403.847656 643.789062 " fill-opacity="1" fill-rule="nonzero"/><path fill="#0a0905" d="M 401.746094 644.425781 C 401.84375 644.425781 401.933594 644.496094 401.949219 644.597656 L 403.28125 653.050781 C 403.296875 653.160156 403.226562 653.261719 403.117188 653.277344 C 403.007812 653.296875 402.90625 653.222656 402.890625 653.113281 L 401.558594 644.660156 C 401.542969 644.550781 401.617188 644.449219 401.726562 644.433594 C 401.730469 644.433594 401.738281 644.433594 401.746094 644.433594 Z M 401.746094 644.425781 " fill-opacity="1" fill-rule="nonzero"/><path fill="#0a0905" d="M 404.945312 656.472656 C 405.019531 656.472656 405.089844 656.503906 405.125 656.570312 C 408.058594 661.574219 412.808594 664.707031 419.230469 665.898438 C 427.734375 667.476562 430.621094 670.78125 430.738281 670.925781 C 430.8125 671.007812 430.800781 671.136719 430.71875 671.203125 C 430.636719 671.277344 430.507812 671.265625 430.441406 671.183594 C 430.410156 671.152344 427.507812 667.84375 419.164062 666.289062 C 412.710938 665.09375 407.742188 661.804688 404.785156 656.773438 C 404.730469 656.679688 404.761719 656.558594 404.859375 656.5 C 404.890625 656.484375 404.921875 656.472656 404.953125 656.472656 Z M 404.945312 656.472656 " fill-opacity="1" fill-rule="nonzero"/><path fill="#0a0905" d="M 400.035156 644.894531 C 400.132812 644.894531 400.21875 644.960938 400.238281 645.058594 C 401.078125 649.828125 400.265625 658.910156 400.253906 659.003906 C 400.246094 659.109375 400.148438 659.191406 400.039062 659.183594 C 399.929688 659.171875 399.847656 659.074219 399.859375 658.96875 C 399.871094 658.875 400.675781 649.84375 399.847656 645.132812 C 399.828125 645.023438 399.902344 644.921875 400.007812 644.902344 C 400.019531 644.902344 400.023438 644.902344 400.035156 644.902344 Z M 400.035156 644.894531 " fill-opacity="1" fill-rule="nonzero"/><path fill="#0a0905" d="M 398.488281 644.960938 C 398.585938 644.960938 398.675781 645.027344 398.691406 645.125 C 398.707031 645.207031 399.960938 653.371094 395.003906 663.910156 C 389.394531 675.851562 380.890625 683.410156 380.808594 683.480469 C 380.726562 683.554688 380.601562 683.550781 380.523438 683.464844 C 380.453125 683.382812 380.457031 683.261719 380.539062 683.183594 C 380.621094 683.113281 389.0625 675.601562 394.640625 663.742188 C 399.539062 653.320312 398.308594 645.269531 398.292969 645.195312 C 398.277344 645.085938 398.347656 644.984375 398.457031 644.96875 C 398.46875 644.96875 398.472656 644.96875 398.484375 644.96875 Z M 398.488281 644.960938 " fill-opacity="1" fill-rule="nonzero"/><path fill="#0a0905" d="M 396.996094 645.660156 C 397.105469 645.660156 397.199219 645.738281 397.203125 645.851562 C 397.761719 656.25 391.890625 667.457031 381.085938 676.605469 C 372.050781 684.253906 368.253906 688.582031 368.21875 688.621094 C 368.144531 688.703125 368.023438 688.714844 367.9375 688.640625 C 367.847656 688.570312 367.84375 688.445312 367.914062 688.359375 C 367.953125 688.320312 371.765625 683.96875 380.824219 676.300781 C 391.53125 667.238281 397.351562 656.144531 396.800781 645.871094 C 396.796875 645.765625 396.878906 645.667969 396.992188 645.660156 Z M 396.996094 645.660156 " fill-opacity="1" fill-rule="nonzero"/><path fill="#0a0905" d="M 395.003906 646.65625 C 395.113281 646.65625 395.203125 646.734375 395.210938 646.847656 C 395.707031 656.320312 386.511719 663.285156 378.402344 669.429688 C 369.324219 676.308594 359.175781 684.21875 359.074219 684.292969 C 358.984375 684.359375 358.863281 684.34375 358.792969 684.257812 C 358.726562 684.171875 358.742188 684.046875 358.832031 683.980469 C 358.933594 683.902344 369.082031 675.988281 378.164062 669.113281 C 386.195312 663.027344 395.300781 656.128906 394.820312 646.867188 C 394.8125 646.761719 394.894531 646.667969 395.007812 646.65625 Z M 395.003906 646.65625 " fill-opacity="1" fill-rule="nonzero"/><path fill="#f58634" d="M 1130.40625 183.722656 L 1101.09375 160.179688 C 1099.40625 158.824219 1096.90625 160.082031 1096.992188 162.246094 L 1100.148438 243.589844 C 1100.230469 245.730469 1098.796875 247.636719 1096.714844 248.152344 L 1096.703125 248.152344 C 1094.773438 248.636719 1093.378906 250.320312 1093.277344 252.308594 L 1092.386719 269.574219 C 1092.28125 271.628906 1093.582031 273.5 1095.542969 274.117188 C 1097.691406 274.792969 1099.011719 276.949219 1098.640625 279.171875 L 1085.492188 357.898438 C 1085.136719 360.03125 1087.457031 361.601562 1089.300781 360.46875 L 1120.695312 341.246094 C 1121.351562 340.847656 1121.789062 340.164062 1121.882812 339.398438 L 1124.59375 317.03125 L 1125.769531 251.910156 L 1130.410156 204.03125 L 1131.347656 185.820312 C 1131.386719 185.007812 1131.039062 184.234375 1130.40625 183.722656 Z M 1130.40625 183.722656 " fill-opacity="1" fill-rule="nonzero"/><path fill="#c73f29" d="M 1087.773438 357.929688 L 1100.921875 279.203125 C 1100.964844 278.945312 1100.996094 278.683594 1101.003906 278.429688 C 1101.164062 275.320312 1099.203125 272.492188 1096.226562 271.550781 C 1095.269531 271.253906 1094.640625 270.34375 1094.691406 269.339844 L 1095.578125 252.078125 C 1095.628906 251.101562 1096.296875 250.292969 1097.242188 250.058594 C 1100.203125 249.328125 1102.289062 246.800781 1102.445312 243.769531 C 1102.453125 243.5625 1102.453125 243.355469 1102.445312 243.144531 C 1102.445312 243.144531 1099.289062 161.789062 1099.289062 161.785156 C 1099.289062 161.726562 1099.304688 161.65625 1099.414062 161.609375 C 1099.519531 161.558594 1099.578125 161.609375 1099.617188 161.632812 L 1128.929688 185.179688 C 1128.984375 185.21875 1129.007812 185.28125 1129.007812 185.347656 L 1128.074219 203.503906 L 1123.429688 251.425781 L 1122.25 316.515625 L 1119.554688 338.765625 C 1119.550781 338.828125 1119.511719 338.878906 1119.457031 338.914062 L 1088.0625 358.136719 C 1088.015625 358.160156 1087.960938 358.195312 1087.855469 358.136719 C 1087.75 358.070312 1087.75 357.992188 1087.753906 357.964844 L 1087.753906 357.925781 Z M 1087.773438 357.929688 " fill-opacity="1" fill-rule="nonzero"/><path fill="#fce8cf" d="M 1131.488281 264.15625 C 1131.488281 264.15625 1141.570312 263.386719 1145.816406 256.003906 C 1150.058594 248.625 1162.238281 219.128906 1179.148438 211.734375 L 1154.375 198.464844 C 1154.375 198.464844 1143.375 202.429688 1138.492188 211.910156 L 1137.265625 203.851562 L 1131.371094 192.347656 L 1102.738281 172.210938 C 1102.738281 172.210938 1100.164062 194.5625 1103.585938 217.839844 C 1106.765625 239.480469 1110.96875 248.65625 1101.6875 251.40625 C 1100.289062 251.820312 1099.289062 253.042969 1099.222656 254.5 L 1098.621094 267.386719 C 1098.566406 268.652344 1099.203125 269.875 1100.320312 270.476562 C 1102.625 271.714844 1106.03125 275.265625 1103.671875 285.207031 C 1100.269531 299.515625 1090.160156 328.589844 1091.605469 350.429688 L 1124.496094 332.417969 L 1129.207031 323.730469 L 1129.554688 320.953125 L 1136.304688 317.898438 C 1136.304688 317.898438 1130.746094 313.277344 1135.046875 303.570312 C 1139.339844 293.863281 1146.3125 288.734375 1147.414062 279.460938 C 1148.511719 270.191406 1141.160156 264.566406 1131.5 264.15625 Z M 1131.488281 264.15625 " fill-opacity="1" fill-rule="nonzero"/><path fill="#0a0905" d="M 1100.9375 260.003906 C 1100.949219 259.84375 1101.082031 259.71875 1101.242188 259.726562 C 1110.902344 260.222656 1116.300781 259.585938 1123.90625 240.386719 C 1131.59375 220.980469 1138.183594 211.828125 1138.253906 211.734375 C 1138.34375 211.605469 1138.53125 211.574219 1138.65625 211.671875 C 1138.785156 211.765625 1138.816406 211.949219 1138.71875 212.078125 C 1138.652344 212.164062 1132.101562 221.277344 1124.445312 240.601562 C 1116.707031 260.136719 1110.871094 260.804688 1101.210938 260.304688 C 1101.050781 260.296875 1100.929688 260.164062 1100.933594 260.003906 Z M 1100.9375 260.003906 " fill-opacity="1" fill-rule="nonzero"/><path fill="#0a0905" d="M 1100.808594 262.578125 C 1100.820312 262.417969 1100.953125 262.296875 1101.113281 262.300781 L 1131.503906 263.867188 C 1131.664062 263.878906 1131.789062 264.011719 1131.78125 264.171875 C 1131.777344 264.332031 1131.640625 264.453125 1131.480469 264.449219 L 1101.085938 262.882812 C 1100.929688 262.871094 1100.804688 262.738281 1100.808594 262.578125 Z M 1100.808594 262.578125 " fill-opacity="1" fill-rule="nonzero"/><path fill="#0a0905" d="M 1101.054688 257.699219 C 1101.054688 257.699219 1101.054688 257.679688 1101.054688 257.671875 C 1101.082031 257.511719 1101.230469 257.402344 1101.390625 257.429688 C 1101.515625 257.449219 1113.609375 259.238281 1116.734375 249.28125 C 1118.933594 242.289062 1116.285156 233.832031 1113.484375 224.878906 C 1112.203125 220.777344 1110.875 216.535156 1109.976562 212.289062 C 1107.140625 198.921875 1108.589844 185.335938 1108.609375 185.199219 C 1108.621094 185.097656 1108.683594 185.007812 1108.773438 184.96875 C 1108.867188 184.925781 1108.972656 184.929688 1109.058594 184.988281 L 1137.414062 203.597656 C 1137.546875 203.683594 1137.585938 203.863281 1137.496094 204 C 1137.410156 204.132812 1137.230469 204.167969 1137.097656 204.082031 L 1109.140625 185.734375 C 1108.914062 188.242188 1108.023438 200.292969 1110.546875 212.160156 C 1111.441406 216.378906 1112.765625 220.609375 1114.046875 224.695312 C 1116.871094 233.734375 1119.542969 242.277344 1117.292969 249.441406 C 1114.015625 259.878906 1101.429688 258.007812 1101.304688 257.988281 C 1101.152344 257.964844 1101.050781 257.835938 1101.054688 257.683594 Z M 1101.054688 257.699219 " fill-opacity="1" fill-rule="nonzero"/><path fill="#0a0905" d="M 1102.4375 172.195312 C 1102.445312 172.089844 1102.511719 171.992188 1102.613281 171.945312 C 1102.761719 171.882812 1102.933594 171.949219 1102.992188 172.097656 C 1103.035156 172.195312 1107.128906 181.835938 1109.144531 185.085938 C 1109.226562 185.222656 1109.183594 185.398438 1109.050781 185.488281 C 1108.917969 185.570312 1108.738281 185.527344 1108.652344 185.394531 C 1106.609375 182.109375 1102.628906 172.726562 1102.460938 172.328125 C 1102.445312 172.289062 1102.433594 172.242188 1102.4375 172.203125 Z M 1102.4375 172.195312 " fill-opacity="1" fill-rule="nonzero"/><path fill="#0a0905" d="M 1100.640625 265.855469 C 1100.652344 265.707031 1100.769531 265.585938 1100.921875 265.578125 C 1105.125 265.464844 1111.1875 267.105469 1115.253906 271.027344 C 1118.269531 273.9375 1119.816406 277.636719 1119.847656 282.019531 C 1119.910156 290.023438 1115.402344 296.695312 1110.628906 303.761719 C 1108.199219 307.363281 1105.6875 311.085938 1103.726562 315.085938 C 1098.496094 325.789062 1104.621094 331.828125 1105.679688 332.765625 L 1129.410156 320.691406 C 1129.554688 320.617188 1129.726562 320.675781 1129.800781 320.816406 C 1129.871094 320.960938 1129.816406 321.136719 1129.671875 321.207031 L 1105.769531 333.375 C 1105.664062 333.425781 1105.542969 333.414062 1105.453125 333.34375 C 1105.371094 333.277344 1097.402344 326.699219 1103.199219 314.835938 C 1105.171875 310.796875 1107.699219 307.054688 1110.140625 303.4375 C 1114.859375 296.445312 1119.316406 289.84375 1119.257812 282.027344 C 1119.226562 277.800781 1117.734375 274.246094 1114.835938 271.445312 C 1110.894531 267.636719 1105.011719 266.046875 1100.929688 266.160156 C 1100.769531 266.160156 1100.636719 266.035156 1100.628906 265.878906 C 1100.628906 265.867188 1100.628906 265.863281 1100.628906 265.851562 Z M 1100.640625 265.855469 " fill-opacity="1" fill-rule="nonzero"/><path fill="#0a0905" d="M 1095.199219 342.023438 C 1095.378906 338.511719 1096.519531 323.632812 1103.316406 305.539062 L 1103.996094 303.730469 C 1109.070312 290.234375 1112.742188 280.484375 1109.621094 274.625 C 1108.179688 271.910156 1105.265625 270.070312 1100.710938 268.992188 C 1100.558594 268.957031 1100.457031 268.800781 1100.496094 268.644531 C 1100.53125 268.488281 1100.691406 268.390625 1100.847656 268.425781 C 1105.574219 269.546875 1108.609375 271.484375 1110.136719 274.351562 C 1113.378906 280.449219 1109.667969 290.300781 1104.539062 303.933594 L 1103.863281 305.746094 C 1096.910156 324.25 1095.902344 339.371094 1095.769531 342.304688 L 1129.058594 323.484375 C 1129.199219 323.410156 1129.378906 323.453125 1129.457031 323.59375 C 1129.53125 323.730469 1129.484375 323.914062 1129.347656 323.988281 L 1095.605469 343.066406 C 1095.511719 343.117188 1095.40625 343.117188 1095.3125 343.066406 C 1095.226562 343.015625 1095.167969 342.917969 1095.167969 342.808594 C 1095.167969 342.789062 1095.171875 342.523438 1095.199219 342.027344 Z M 1095.199219 342.023438 " fill-opacity="1" fill-rule="nonzero"/><path fill="#0a0905" d="M 1091.308594 350.417969 C 1091.308594 350.375 1091.320312 350.339844 1091.339844 350.296875 L 1095.199219 342.675781 C 1095.269531 342.53125 1095.445312 342.476562 1095.589844 342.546875 C 1095.734375 342.621094 1095.789062 342.792969 1095.71875 342.9375 L 1091.859375 350.558594 C 1091.789062 350.703125 1091.613281 350.761719 1091.46875 350.6875 C 1091.359375 350.636719 1091.304688 350.523438 1091.308594 350.417969 Z M 1091.308594 350.417969 " fill-opacity="1" fill-rule="nonzero"/><path fill="#f58634" d="M 515.835938 364.6875 L 472.703125 380.445312 C 470.222656 381.351562 469.953125 384.757812 472.265625 386.042969 L 559.246094 434.167969 C 561.539062 435.4375 562.621094 438.136719 561.847656 440.640625 L 561.847656 440.648438 C 561.121094 442.972656 562 445.496094 564.015625 446.859375 L 581.492188 458.699219 C 583.570312 460.105469 586.347656 459.933594 588.230469 458.273438 C 590.296875 456.453125 593.386719 456.4375 595.472656 458.230469 L 669.410156 521.746094 C 671.414062 523.464844 674.511719 522.03125 674.503906 519.390625 L 674.265625 474.425781 C 674.265625 473.484375 673.824219 472.597656 673.085938 472.015625 L 651.433594 455.039062 L 584.140625 412.640625 L 537.054688 377.515625 L 518.625 365.027344 C 517.800781 364.472656 516.769531 364.34375 515.839844 364.683594 Z M 515.835938 364.6875 " fill-opacity="1" fill-rule="nonzero"/><path fill="#c73f29" d="M 670.890625 519.386719 L 596.953125 455.871094 C 596.710938 455.667969 596.453125 455.472656 596.191406 455.292969 C 593.042969 453.160156 588.847656 453.421875 585.992188 455.9375 C 585.070312 456.746094 583.726562 456.832031 582.714844 456.144531 L 565.238281 444.304688 C 564.25 443.636719 563.824219 442.421875 564.179688 441.285156 C 565.285156 437.730469 563.964844 433.953125 560.894531 431.875 C 560.691406 431.738281 560.476562 431.605469 560.25 431.480469 C 560.25 431.480469 473.257812 383.34375 473.25 383.339844 C 473.1875 383.296875 473.125 383.242188 473.144531 383.101562 C 473.167969 382.957031 473.242188 382.929688 473.304688 382.90625 L 516.433594 367.148438 C 516.507812 367.125 516.59375 367.132812 516.65625 367.175781 L 535.035156 379.628906 L 582.164062 414.777344 L 649.429688 457.15625 L 670.96875 474.039062 C 671.027344 474.085938 671.058594 474.15625 671.058594 474.234375 L 671.296875 519.199219 C 671.296875 519.261719 671.296875 519.347656 671.167969 519.417969 C 671.027344 519.488281 670.953125 519.4375 670.925781 519.417969 L 670.886719 519.386719 Z M 670.890625 519.386719 " fill-opacity="1" fill-rule="nonzero"/><path fill="#fce8cf" d="M 600.554688 414.40625 C 600.554688 414.40625 606.121094 403.386719 601.09375 394.285156 C 596.066406 385.183594 572.949219 353.808594 575.910156 331.460938 L 546.386719 348.960938 C 546.386719 348.960938 543.574219 362.964844 550.386719 374.0625 L 541.191406 370.25 L 525.453125 369.140625 L 486.308594 386.339844 C 486.308594 386.339844 508.035156 403.15625 534.523438 414.300781 C 559.144531 424.65625 571.386719 426.0625 568.394531 437.5 C 567.941406 439.21875 568.589844 441.042969 570.0625 442.03125 L 583.148438 450.804688 C 584.433594 451.667969 586.113281 451.765625 587.449219 450.980469 C 590.203125 449.355469 596.066406 448.039062 604.953125 456.792969 C 617.75 469.394531 641.730469 498.34375 665.46875 510.636719 L 667.441406 464.875 L 661.34375 454.457031 L 658.65625 452.339844 L 659.738281 443.351562 C 659.738281 443.351562 651.402344 446.246094 643.976562 435.613281 C 636.550781 424.984375 635.601562 414.453125 626.605469 407.441406 C 617.613281 400.433594 607.089844 404.558594 600.554688 414.402344 Z M 600.554688 414.40625 " fill-opacity="1" fill-rule="nonzero"/><path fill="#0a0905" d="M 576.902344 443.710938 C 576.738281 443.605469 576.695312 443.382812 576.808594 443.21875 C 583.4375 433.433594 586.1875 427.394531 570.929688 407.304688 C 555.515625 387.003906 550.117188 374.324219 550.066406 374.195312 C 549.988281 374.015625 550.074219 373.804688 550.253906 373.734375 C 550.433594 373.65625 550.644531 373.742188 550.71875 373.925781 C 550.769531 374.046875 556.144531 386.660156 571.496094 406.878906 C 587.015625 427.3125 584.023438 433.839844 577.394531 443.621094 C 577.289062 443.785156 577.066406 443.824219 576.902344 443.710938 Z M 576.902344 443.710938 " fill-opacity="1" fill-rule="nonzero"/><path fill="#0a0905" d="M 579.507812 445.476562 C 579.34375 445.367188 579.300781 445.144531 579.414062 444.980469 L 600.265625 414.203125 C 600.375 414.039062 600.59375 413.996094 600.757812 414.109375 C 600.921875 414.222656 600.964844 414.4375 600.851562 414.601562 L 580 445.382812 C 579.890625 445.546875 579.671875 445.589844 579.507812 445.476562 Z M 579.507812 445.476562 " fill-opacity="1" fill-rule="nonzero"/><path fill="#0a0905" d="M 574.574219 442.132812 C 574.574219 442.132812 574.554688 442.117188 574.542969 442.113281 C 574.394531 441.984375 574.375 441.765625 574.503906 441.617188 C 574.601562 441.503906 584.117188 429.988281 575.695312 420.425781 C 569.773438 413.707031 559.273438 411.128906 548.148438 408.394531 C 543.050781 407.140625 537.78125 405.84375 532.773438 404.101562 C 517.015625 398.617188 503.738281 388.507812 503.609375 388.40625 C 503.511719 388.328125 503.460938 388.210938 503.472656 388.089844 C 503.480469 387.964844 503.558594 387.855469 503.671875 387.804688 L 541.046875 369.929688 C 541.222656 369.847656 541.4375 369.921875 541.519531 370.09375 C 541.601562 370.269531 541.53125 370.484375 541.355469 370.566406 L 504.515625 388.191406 C 506.992188 390.015625 519.019531 398.558594 533.015625 403.429688 C 537.988281 405.160156 543.242188 406.453125 548.324219 407.699219 C 559.554688 410.460938 570.164062 413.066406 576.230469 419.953125 C 585.0625 429.980469 575.148438 441.949219 575.046875 442.066406 C 574.929688 442.207031 574.726562 442.230469 574.578125 442.132812 Z M 574.574219 442.132812 " fill-opacity="1" fill-rule="nonzero"/><path fill="#0a0905" d="M 486.113281 386.632812 C 486.007812 386.5625 485.941406 386.429688 485.960938 386.289062 C 485.984375 386.09375 486.167969 385.960938 486.363281 385.992188 C 486.488281 386.011719 499.152344 387.824219 503.816406 387.773438 C 504.011719 387.773438 504.171875 387.929688 504.175781 388.125 C 504.175781 388.320312 504.019531 388.480469 503.828125 388.484375 C 499.105469 388.539062 486.78125 386.773438 486.265625 386.695312 C 486.207031 386.683594 486.160156 386.667969 486.113281 386.640625 Z M 486.113281 386.632812 " fill-opacity="1" fill-rule="nonzero"/><path fill="#0a0905" d="M 582.828125 447.726562 C 582.671875 447.625 582.625 447.417969 582.71875 447.257812 C 585.257812 442.792969 590.800781 437.492188 597.46875 435.726562 C 602.417969 434.414062 607.257812 435.140625 611.863281 437.875 C 620.261719 442.871094 624.378906 451.796875 628.75 461.253906 C 630.976562 466.070312 633.277344 471.054688 636.222656 475.628906 C 644.09375 487.859375 654.277344 485.28125 655.925781 484.761719 L 658.3125 452.320312 C 658.328125 452.125 658.496094 451.976562 658.691406 451.992188 C 658.886719 452.007812 659.035156 452.175781 659.019531 452.371094 L 656.621094 485.046875 C 656.609375 485.1875 656.519531 485.304688 656.390625 485.355469 C 656.273438 485.398438 644.363281 489.570312 635.632812 476.011719 C 632.65625 471.394531 630.34375 466.390625 628.109375 461.550781 C 623.789062 452.199219 619.707031 443.367188 611.503906 438.484375 C 607.066406 435.847656 602.414062 435.15625 597.65625 436.414062 C 591.1875 438.125 585.804688 443.269531 583.339844 447.613281 C 583.242188 447.78125 583.027344 447.84375 582.855469 447.746094 C 582.847656 447.746094 582.839844 447.738281 582.832031 447.730469 Z M 582.828125 447.726562 " fill-opacity="1" fill-rule="nonzero"/><path fill="#0a0905" d="M 658.964844 501.566406 C 655.414062 499.160156 640.589844 488.558594 625.980469 470.015625 L 624.523438 468.160156 C 613.636719 454.320312 605.769531 444.324219 597.671875 443.875 C 593.925781 443.671875 590.160156 445.550781 586.152344 449.628906 C 586.011719 449.765625 585.789062 449.777344 585.648438 449.628906 C 585.507812 449.488281 585.503906 449.269531 585.648438 449.125 C 589.804688 444.894531 593.75 442.941406 597.710938 443.164062 C 606.128906 443.625 614.078125 453.730469 625.082031 467.71875 L 626.542969 469.574219 C 641.484375 488.539062 656.640625 499.152344 659.621094 501.152344 L 661.003906 454.453125 C 661.007812 454.257812 661.171875 454.105469 661.367188 454.109375 C 661.5625 454.113281 661.71875 454.277344 661.714844 454.472656 L 660.316406 501.804688 C 660.316406 501.929688 660.238281 502.042969 660.125 502.105469 C 660.011719 502.167969 659.878906 502.164062 659.769531 502.089844 C 659.75 502.074219 659.472656 501.902344 658.976562 501.5625 Z M 658.964844 501.566406 " fill-opacity="1" fill-rule="nonzero"/><path fill="#0a0905" d="M 665.273438 510.9375 C 665.234375 510.910156 665.195312 510.875 665.171875 510.828125 L 659.648438 501.976562 C 659.546875 501.8125 659.597656 501.59375 659.761719 501.488281 C 659.925781 501.386719 660.144531 501.4375 660.25 501.601562 L 665.773438 510.453125 C 665.875 510.617188 665.824219 510.839844 665.660156 510.941406 C 665.535156 511.019531 665.386719 511.007812 665.273438 510.9375 Z M 665.273438 510.9375 " fill-opacity="1" fill-rule="nonzero"/><path fill="#f58634" d="M 1050.859375 594.574219 C 1040.652344 597.789062 978.761719 617.269531 972.539062 619.132812 C 965.75 621.152344 967.058594 620.523438 963.558594 623.8125 C 956.941406 629.785156 944.613281 626.582031 941.050781 623.261719 C 937.824219 620.25 879.21875 562.011719 868.414062 551.265625 C 867.40625 550.261719 867.214844 548.710938 867.949219 547.507812 L 914.085938 471.132812 C 914.582031 470.324219 915.210938 469.609375 915.953125 469.027344 L 917.027344 468.1875 C 918.121094 467.328125 919.636719 467.339844 920.714844 468.125 C 920.875 468.234375 921.019531 468.367188 921.152344 468.511719 L 925.796875 473.480469 L 928.585938 480.503906 L 960.785156 526.617188 L 993.257812 540.941406 L 1042.441406 520.808594 L 1079.898438 503.871094 L 1080.3125 503.683594 C 1081.386719 503.195312 1082.644531 503.382812 1083.53125 504.109375 C 1083.648438 504.207031 1083.757812 504.304688 1083.855469 504.425781 C 1084.621094 505.273438 1084.84375 506.476562 1084.449219 507.550781 L 1052.796875 592.730469 C 1052.46875 593.613281 1051.75 594.292969 1050.851562 594.582031 Z M 1050.859375 594.574219 " fill-opacity="1" fill-rule="nonzero"/><path fill="#c73f29" d="M 962.371094 618.367188 C 962.371094 618.367188 959.425781 623.429688 953.082031 623.96875 C 946.726562 624.511719 943.957031 621.183594 942.269531 618.613281 C 940.578125 616.039062 872.597656 548.105469 872.597656 548.105469 L 920.730469 468.121094 C 920.890625 468.226562 921.035156 468.359375 921.167969 468.503906 L 925.8125 473.476562 L 928.601562 480.5 L 960.796875 526.609375 L 993.273438 540.933594 L 1042.457031 520.804688 L 1079.914062 503.863281 L 1046.945312 590.90625 L 962.371094 618.371094 Z M 962.371094 618.367188 " fill-opacity="1" fill-rule="nonzero"/><path fill="#fce8cf" d="M 922.339844 471.625 L 875.390625 547.789062 C 875.390625 547.789062 933.90625 602.625 944.648438 618.472656 C 944.648438 618.472656 953.980469 614.785156 962.84375 616.136719 C 962.84375 616.136719 968.53125 607.519531 989.65625 602.691406 C 1010.773438 597.859375 1038.175781 593.476562 1045.667969 588.625 L 1077.007812 506.125 L 1062.410156 500.054688 L 1041.273438 507.886719 L 1048.832031 487.863281 C 1048.832031 487.863281 1037.867188 497.996094 1031.023438 502.332031 C 1024.171875 506.664062 1018.15625 508.402344 1018.15625 508.402344 L 1028.871094 475.621094 C 1028.871094 475.621094 1020.398438 496.597656 1010.363281 501.457031 C 1000.328125 506.320312 990.59375 514.3125 983.839844 526.992188 C 983.839844 526.992188 980.6875 516 970.859375 509.609375 C 961.03125 503.222656 945.917969 492.089844 940.964844 469.898438 L 934.691406 479.429688 L 926.875 471.550781 L 922.347656 471.628906 Z M 922.339844 471.625 " fill-opacity="1" fill-rule="nonzero"/><path fill="#0a0905" d="M 948.75 613.492188 C 948.675781 613.433594 948.621094 613.347656 948.601562 613.25 C 948.503906 612.832031 946.261719 602.933594 947.957031 598.285156 C 949.617188 593.738281 982.058594 529.515625 983.4375 526.785156 C 983.546875 526.570312 983.8125 526.484375 984.027344 526.589844 C 984.246094 526.699219 984.332031 526.964844 984.222656 527.183594 C 983.882812 527.851562 950.425781 594.085938 948.785156 598.589844 C 947.183594 602.992188 949.4375 612.953125 949.457031 613.050781 C 949.515625 613.289062 949.367188 613.523438 949.125 613.582031 C 948.984375 613.613281 948.847656 613.574219 948.746094 613.492188 Z M 948.75 613.492188 " fill-opacity="1" fill-rule="nonzero"/><path fill="#0a0905" d="M 945.441406 613.046875 C 945.390625 613.003906 945.347656 612.953125 945.324219 612.890625 C 939.273438 600.042969 927.117188 588.960938 917.351562 580.054688 C 911.773438 574.972656 907.371094 570.964844 905.480469 567.855469 C 900.386719 559.492188 895.816406 548.207031 895.769531 548.09375 C 895.71875 547.972656 895.726562 547.832031 895.796875 547.714844 L 934.300781 479.207031 C 934.417969 478.996094 934.691406 478.917969 934.902344 479.035156 C 935.113281 479.160156 935.191406 479.425781 935.070312 479.636719 L 896.671875 547.960938 C 897.304688 549.496094 901.554688 559.699219 906.242188 567.394531 C 908.070312 570.394531 912.648438 574.566406 917.949219 579.402344 C 927.773438 588.363281 940.003906 599.503906 946.128906 612.511719 C 946.230469 612.734375 946.140625 612.996094 945.917969 613.097656 C 945.757812 613.175781 945.578125 613.144531 945.449219 613.042969 Z M 945.441406 613.046875 " fill-opacity="1" fill-rule="nonzero"/><path fill="#0a0905" d="M 943.875 613.679688 C 943.835938 613.648438 943.804688 613.613281 943.78125 613.570312 C 939.542969 606.816406 881.972656 548.984375 881.390625 548.398438 C 881.25 548.253906 881.222656 548.03125 881.324219 547.863281 L 926.484375 471.320312 C 926.609375 471.109375 926.882812 471.042969 927.09375 471.167969 C 927.300781 471.289062 927.371094 471.5625 927.246094 471.773438 L 882.261719 548.023438 C 886.886719 552.667969 940.339844 606.421875 944.53125 613.109375 C 944.660156 613.3125 944.597656 613.585938 944.390625 613.714844 C 944.226562 613.816406 944.023438 613.796875 943.878906 613.683594 Z M 943.875 613.679688 " fill-opacity="1" fill-rule="nonzero"/><path fill="#0a0905" d="M 875.109375 548.128906 C 875.003906 548.042969 874.9375 547.914062 874.949219 547.765625 C 874.960938 547.523438 875.171875 547.332031 875.410156 547.34375 L 881.726562 547.640625 C 881.972656 547.652344 882.15625 547.859375 882.148438 548.105469 C 882.136719 548.347656 881.925781 548.535156 881.683594 548.527344 L 875.371094 548.226562 C 875.273438 548.226562 875.179688 548.1875 875.109375 548.128906 Z M 875.109375 548.128906 " fill-opacity="1" fill-rule="nonzero"/><path fill="#0a0905" d="M 952.527344 611.878906 C 952.445312 611.8125 952.386719 611.71875 952.371094 611.605469 C 952.351562 611.472656 950.402344 598.214844 959.621094 591.96875 C 962.433594 590.066406 965.707031 588.226562 969.167969 586.28125 C 976.882812 581.949219 984.855469 577.464844 988.425781 571.828125 C 993.589844 563.671875 1017.507812 508.777344 1017.75 508.222656 C 1017.847656 507.996094 1018.109375 507.898438 1018.332031 507.996094 C 1018.550781 508.09375 1018.65625 508.355469 1018.558594 508.578125 C 1017.570312 510.839844 994.371094 564.082031 989.171875 572.300781 C 985.484375 578.128906 977.40625 582.667969 969.601562 587.050781 C 966.152344 588.988281 962.894531 590.816406 960.113281 592.699219 C 951.363281 598.625 953.226562 611.34375 953.242188 611.472656 C 953.277344 611.714844 953.113281 611.941406 952.871094 611.976562 C 952.742188 611.996094 952.613281 611.957031 952.519531 611.878906 Z M 952.527344 611.878906 " fill-opacity="1" fill-rule="nonzero"/><path fill="#0a0905" d="M 955.527344 611.207031 C 955.363281 611.066406 955.316406 610.824219 955.429688 610.636719 C 965.535156 593.855469 981.84375 588.949219 992.640625 585.699219 C 994.863281 585.03125 996.785156 584.449219 998.359375 583.855469 C 1007.011719 580.570312 1014.863281 570.164062 1015.417969 569.417969 L 1040.863281 507.71875 C 1040.953125 507.492188 1041.210938 507.382812 1041.4375 507.476562 C 1041.664062 507.570312 1041.773438 507.828125 1041.679688 508.054688 L 1016.214844 569.804688 C 1016.199219 569.835938 1016.183594 569.863281 1016.164062 569.894531 C 1015.828125 570.351562 1007.847656 581.191406 998.671875 584.683594 C 997.070312 585.289062 995.136719 585.875 992.890625 586.546875 C 982.230469 589.753906 966.117188 594.605469 956.183594 611.09375 C 956.054688 611.304688 955.789062 611.371094 955.578125 611.242188 C 955.558594 611.230469 955.542969 611.214844 955.527344 611.207031 Z M 955.527344 611.207031 " fill-opacity="1" fill-rule="nonzero"/><path fill="#0a0905" d="M 959.894531 612.703125 C 959.734375 612.566406 959.683594 612.34375 959.785156 612.152344 C 965.371094 601.714844 981.371094 595.414062 993.8125 591.964844 C 1020.097656 584.683594 1027.332031 582.167969 1028.480469 581.753906 L 1062 499.886719 C 1062.09375 499.660156 1062.351562 499.550781 1062.578125 499.644531 C 1062.800781 499.738281 1062.910156 499.996094 1062.816406 500.21875 L 1029.222656 582.265625 C 1029.179688 582.378906 1029.089844 582.464844 1028.976562 582.511719 C 1028.921875 582.535156 1023.085938 584.773438 994.046875 592.816406 C 976.445312 597.695312 964.867188 604.523438 960.5625 612.570312 C 960.449219 612.785156 960.175781 612.867188 959.964844 612.75 C 959.941406 612.734375 959.914062 612.71875 959.894531 612.703125 Z M 959.894531 612.703125 " fill-opacity="1" fill-rule="nonzero"/><path fill="#0a0905" d="M 1028.535156 582.441406 C 1028.390625 582.324219 1028.335938 582.121094 1028.402344 581.941406 C 1028.488281 581.714844 1028.746094 581.601562 1028.972656 581.691406 L 1045.820312 588.210938 C 1046.046875 588.300781 1046.160156 588.558594 1046.074219 588.78125 C 1045.984375 589.007812 1045.726562 589.121094 1045.503906 589.035156 L 1028.652344 582.511719 C 1028.609375 582.496094 1028.566406 582.472656 1028.53125 582.441406 Z M 1028.535156 582.441406 " fill-opacity="1" fill-rule="nonzero"/><path fill="#f0c321" d="M 463.871094 444.085938 L 463.726562 444.078125 C 463.148438 444.027344 462.582031 444.257812 462.203125 444.699219 L 418.476562 494.804688 L 395.035156 523.167969 L 369.007812 552.210938 C 368.902344 552.335938 368.804688 552.472656 368.742188 552.617188 C 368.628906 552.824219 368.574219 553.042969 368.550781 553.273438 C 368.535156 553.476562 368.550781 553.6875 368.605469 553.898438 C 368.8125 554.675781 369.511719 555.234375 370.324219 555.25 C 377.507812 555.429688 410.789062 556.265625 416.347656 557.140625 C 422.589844 558.121094 428.511719 559.695312 431.828125 557.304688 C 435.148438 554.917969 473.496094 504.402344 473.992188 501.683594 C 474.441406 499.222656 466.949219 454.140625 465.519531 445.59375 C 465.421875 445.011719 465.0625 444.535156 464.566406 444.277344 C 464.359375 444.164062 464.128906 444.097656 463.875 444.078125 Z M 463.871094 444.085938 " fill-opacity="1" fill-rule="nonzero"/><path fill="#bd962e" d="M 463.871094 444.085938 L 463.726562 444.078125 C 463.148438 444.027344 462.582031 444.257812 462.203125 444.699219 L 418.476562 494.804688 L 395.035156 523.167969 L 369.007812 552.210938 C 368.902344 552.335938 368.804688 552.472656 368.742188 552.617188 C 380.84375 552.734375 419.816406 553.238281 423.128906 554.871094 C 427.0625 556.8125 431.445312 554.785156 431.746094 553.027344 C 432.277344 549.953125 420.527344 495.855469 420.527344 495.855469 L 464.566406 444.28125 C 464.359375 444.167969 464.128906 444.101562 463.875 444.082031 Z M 463.871094 444.085938 " fill-opacity="1" fill-rule="nonzero"/><path fill="#fce8cf" d="M 429.988281 551.636719 C 429.457031 552.976562 422.277344 553.289062 421.164062 552.835938 C 420.042969 552.386719 416.519531 549.855469 407.714844 549.726562 C 398.910156 549.601562 389.144531 551.34375 383.683594 551.675781 C 378.222656 552.011719 372.28125 550.699219 372.28125 550.699219 L 374.300781 544.261719 L 378.484375 538.339844 L 373.070312 536.074219 L 379.328125 528.523438 C 379.328125 528.523438 374.949219 525.808594 374.085938 524.199219 L 416.605469 477.183594 L 425.078125 483.074219 L 452.078125 452.65625 L 453.851562 454.273438 L 418.941406 494.90625 C 418.941406 494.90625 431.136719 548.792969 430.003906 551.636719 Z M 429.988281 551.636719 " fill-opacity="1" fill-rule="nonzero"/><path fill="#0a0905" d="M 409.386719 500.789062 C 409.378906 500.867188 409.402344 500.945312 409.453125 501.007812 C 409.535156 501.097656 417.519531 510.492188 419.21875 521.210938 C 419.667969 524.035156 419.820312 526.332031 419.96875 528.554688 C 420.375 534.699219 420.699219 539.558594 427.488281 550.082031 C 427.574219 550.21875 427.753906 550.257812 427.886719 550.171875 C 428.023438 550.082031 428.0625 549.902344 427.976562 549.769531 C 421.269531 539.367188 420.953125 534.582031 420.550781 528.519531 C 420.414062 526.390625 420.246094 523.980469 419.796875 521.121094 C 418.203125 511.09375 411.210938 502.230469 410.054688 500.820312 L 425.285156 483.265625 C 425.386719 483.140625 425.375 482.960938 425.253906 482.855469 C 425.128906 482.75 424.949219 482.761719 424.839844 482.886719 L 409.449219 500.625 C 409.40625 500.671875 409.378906 500.734375 409.375 500.789062 Z M 409.386719 500.789062 " fill-opacity="1" fill-rule="nonzero"/><path fill="#0a0905" d="M 417.367188 497.023438 C 417.367188 497.054688 417.367188 497.082031 417.371094 497.109375 L 428.625 548.757812 C 428.660156 548.910156 428.8125 549.015625 428.96875 548.976562 C 429.121094 548.941406 429.222656 548.789062 429.1875 548.632812 L 417.972656 497.15625 L 419.308594 495.964844 C 419.425781 495.855469 419.4375 495.675781 419.332031 495.554688 C 419.226562 495.433594 419.046875 495.425781 418.921875 495.527344 L 417.457031 496.832031 C 417.402344 496.886719 417.371094 496.953125 417.359375 497.023438 Z M 417.367188 497.023438 " fill-opacity="1" fill-rule="nonzero"/><path fill="#0a0905" d="M 379.027344 528.496094 C 379.023438 528.578125 379.050781 528.660156 379.113281 528.730469 C 379.335938 528.953125 384.84375 534.351562 398.59375 537.207031 C 400.378906 537.578125 402.101562 537.914062 403.753906 538.230469 C 414.796875 540.359375 422.777344 541.894531 426.058594 550.796875 C 426.117188 550.945312 426.28125 551.023438 426.433594 550.96875 C 426.582031 550.910156 426.660156 550.746094 426.605469 550.59375 C 423.210938 541.386719 415.097656 539.820312 403.867188 537.65625 C 402.21875 537.335938 400.5 537.007812 398.71875 536.636719 C 385.160156 533.816406 379.578125 528.367188 379.527344 528.3125 C 379.414062 528.199219 379.230469 528.199219 379.117188 528.3125 C 379.066406 528.363281 379.039062 528.425781 379.035156 528.492188 Z M 379.027344 528.496094 " fill-opacity="1" fill-rule="nonzero"/><path fill="#0a0905" d="M 378.191406 538.3125 C 378.179688 538.417969 378.226562 538.519531 378.320312 538.582031 C 378.542969 538.730469 383.871094 542.179688 396.3125 541.824219 L 396.765625 541.808594 C 408.949219 541.460938 417.75 541.210938 424.101562 551.125 C 424.1875 551.261719 424.367188 551.300781 424.503906 551.214844 C 424.636719 551.125 424.675781 550.945312 424.589844 550.8125 C 418.058594 540.621094 409.117188 540.875 396.746094 541.226562 L 396.292969 541.242188 C 384.058594 541.59375 378.691406 538.128906 378.640625 538.09375 C 378.503906 538.003906 378.324219 538.042969 378.238281 538.175781 C 378.210938 538.214844 378.195312 538.261719 378.191406 538.308594 Z M 378.191406 538.3125 " fill-opacity="1" fill-rule="nonzero"/><path fill="#0a0905" d="M 374.007812 544.234375 C 374 544.363281 374.074219 544.484375 374.199219 544.53125 C 374.449219 544.621094 380.554688 546.695312 393.800781 544.945312 C 409.371094 542.882812 418.628906 545.078125 422.109375 551.652344 C 422.183594 551.792969 422.359375 551.847656 422.5 551.773438 C 422.640625 551.695312 422.695312 551.523438 422.621094 551.382812 C 419.019531 544.570312 409.566406 542.277344 393.730469 544.375 C 380.640625 546.105469 374.457031 544.007812 374.394531 543.988281 C 374.246094 543.9375 374.074219 544.011719 374.023438 544.167969 C 374.015625 544.191406 374.007812 544.214844 374.007812 544.238281 Z M 374.007812 544.234375 " fill-opacity="1" fill-rule="nonzero"/><path fill="#bd962e" d="M 451.972656 513.722656 L 445.855469 520.894531 C 445.589844 521.210938 445.074219 521.082031 444.988281 520.675781 L 439.296875 493.59375 C 439.265625 493.453125 439.296875 493.300781 439.386719 493.183594 L 445.53125 485.28125 C 445.796875 484.941406 446.328125 485.070312 446.417969 485.484375 L 452.074219 513.296875 C 452.105469 513.445312 452.0625 513.601562 451.964844 513.714844 Z M 451.972656 513.722656 " fill-opacity="1" fill-rule="nonzero"/><path fill="#bd962e" d="M 438.503906 525.917969 L 437.601562 527.285156 C 437.351562 527.65625 436.78125 527.546875 436.695312 527.109375 L 432.539062 507.085938 C 432.507812 506.949219 432.539062 506.804688 432.621094 506.691406 L 433.507812 505.46875 C 433.761719 505.117188 434.3125 505.238281 434.402344 505.65625 L 438.582031 525.539062 C 438.605469 525.664062 438.582031 525.804688 438.507812 525.917969 Z M 438.503906 525.917969 " fill-opacity="1" fill-rule="nonzero"/><path fill="#145893" d="M 825.371094 590.160156 L 825.371094 590.339844 C 825.371094 591.066406 825.019531 591.75 824.433594 592.175781 L 757.375 641.308594 L 719.554688 667.484375 L 680.613281 696.808594 C 680.445312 696.933594 680.261719 697.035156 680.078125 697.097656 C 679.808594 697.214844 679.527344 697.261719 679.234375 697.261719 C 678.984375 697.261719 678.722656 697.21875 678.464844 697.132812 C 677.511719 696.78125 676.898438 695.851562 676.964844 694.84375 C 677.507812 685.878906 680.011719 644.324219 679.515625 637.308594 C 678.957031 629.425781 677.632812 621.886719 680.960938 618.003906 C 684.285156 614.125 751.277344 571.742188 754.714844 571.40625 C 757.828125 571.109375 813.167969 585.253906 823.660156 587.945312 C 824.367188 588.125 824.929688 588.628906 825.195312 589.269531 C 825.3125 589.539062 825.371094 589.835938 825.371094 590.148438 Z M 825.371094 590.160156 " fill-opacity="1" fill-rule="nonzero"/><path fill="#14284d" d="M 825.371094 590.160156 L 825.371094 590.339844 C 825.371094 591.066406 825.019531 591.75 824.433594 592.175781 L 757.375 641.308594 L 719.554688 667.484375 L 680.613281 696.808594 C 680.445312 696.933594 680.261719 697.035156 680.078125 697.097656 C 681.222656 682.007812 684.746094 633.398438 683.066406 629.097656 C 681.074219 623.992188 684.058594 618.75 686.285156 618.5625 C 690.167969 618.226562 756.277344 638.640625 756.277344 638.640625 L 825.195312 589.277344 C 825.3125 589.542969 825.371094 589.839844 825.371094 590.15625 Z M 825.371094 590.160156 " fill-opacity="1" fill-rule="nonzero"/><path fill="#fce8cf" d="M 687.835938 620.894531 C 686.109375 621.417969 684.953125 630.324219 685.394531 631.765625 C 685.835938 633.207031 688.613281 637.863281 687.835938 648.847656 C 687.058594 659.832031 683.84375 671.8125 682.847656 678.578125 C 681.851562 685.347656 682.847656 692.890625 682.847656 692.890625 L 691.082031 691.0625 L 698.902344 686.488281 L 701.148438 693.476562 L 711.214844 686.488281 C 711.214844 686.488281 714.128906 692.230469 716.039062 693.476562 L 779.121094 645.523438 L 772.6875 634.339844 L 813.449219 603.945312 L 811.621094 601.566406 L 757.300781 640.722656 C 757.300781 640.722656 691.5 619.785156 687.839844 620.890625 Z M 687.835938 620.894531 " fill-opacity="1" fill-rule="nonzero"/><path fill="#0a0905" d="M 748.949219 651.988281 C 748.855469 651.988281 748.761719 651.953125 748.691406 651.878906 C 748.585938 651.773438 737.738281 640.820312 724.574219 637.554688 C 721.101562 636.691406 718.257812 636.261719 715.511719 635.839844 C 707.902344 634.671875 701.882812 633.757812 689.5 624.179688 C 689.339844 624.054688 689.3125 623.828125 689.433594 623.667969 C 689.558594 623.511719 689.785156 623.484375 689.941406 623.601562 C 702.175781 633.066406 708.105469 633.972656 715.617188 635.121094 C 718.253906 635.519531 721.238281 635.980469 724.75 636.847656 C 737.066406 639.898438 747.355469 649.5625 748.984375 651.144531 L 772.472656 634.039062 C 772.636719 633.921875 772.863281 633.957031 772.980469 634.125 C 773.097656 634.289062 773.0625 634.515625 772.898438 634.632812 L 749.164062 651.914062 C 749.105469 651.960938 749.027344 651.988281 748.949219 651.988281 Z M 748.949219 651.988281 " fill-opacity="1" fill-rule="nonzero"/><path fill="#0a0905" d="M 754.492188 642.449219 C 754.457031 642.449219 754.421875 642.445312 754.386719 642.433594 L 691.273438 622.910156 C 691.082031 622.847656 690.976562 622.648438 691.03125 622.457031 C 691.09375 622.265625 691.292969 622.160156 691.484375 622.214844 L 754.390625 641.679688 L 756.019531 640.140625 C 756.164062 640.003906 756.394531 640.007812 756.535156 640.15625 C 756.671875 640.300781 756.667969 640.53125 756.519531 640.671875 L 754.742188 642.351562 C 754.675781 642.417969 754.582031 642.449219 754.496094 642.449219 Z M 754.492188 642.449219 " fill-opacity="1" fill-rule="nonzero"/><path fill="#0a0905" d="M 711.210938 686.847656 C 711.105469 686.847656 711.003906 686.800781 710.933594 686.71875 C 710.671875 686.410156 704.546875 678.976562 702.449219 661.542969 C 702.175781 659.28125 701.945312 657.101562 701.730469 655.007812 C 700.253906 641.023438 699.191406 630.921875 688.460938 625.882812 C 688.28125 625.796875 688.207031 625.582031 688.289062 625.402344 C 688.371094 625.222656 688.585938 625.144531 688.769531 625.226562 C 699.875 630.433594 700.953125 640.710938 702.453125 654.933594 C 702.675781 657.019531 702.902344 659.199219 703.171875 661.453125 C 705.238281 678.652344 711.429688 686.179688 711.492188 686.253906 C 711.621094 686.40625 711.601562 686.632812 711.453125 686.761719 C 711.382812 686.816406 711.300781 686.847656 711.214844 686.847656 Z M 711.210938 686.847656 " fill-opacity="1" fill-rule="nonzero"/><path fill="#0a0905" d="M 698.898438 686.847656 C 698.769531 686.847656 698.648438 686.78125 698.578125 686.660156 C 698.421875 686.367188 694.691406 679.359375 696.457031 663.894531 L 696.523438 663.332031 C 698.257812 648.191406 699.511719 637.246094 687.835938 628.28125 C 687.675781 628.15625 687.644531 627.929688 687.769531 627.769531 C 687.890625 627.613281 688.117188 627.582031 688.277344 627.703125 C 700.277344 636.925781 699 648.035156 697.242188 663.414062 L 697.175781 663.976562 C 695.441406 679.1875 699.175781 686.242188 699.21875 686.308594 C 699.316406 686.484375 699.246094 686.703125 699.074219 686.800781 C 699.015625 686.832031 698.960938 686.847656 698.898438 686.847656 Z M 698.898438 686.847656 " fill-opacity="1" fill-rule="nonzero"/><path fill="#0a0905" d="M 691.078125 691.429688 C 690.917969 691.429688 690.769531 691.320312 690.730469 691.15625 C 690.648438 690.832031 688.710938 683.003906 692.304688 666.691406 C 696.535156 647.515625 694.789062 635.746094 686.972656 630.714844 C 686.804688 630.609375 686.757812 630.382812 686.863281 630.210938 C 686.972656 630.042969 687.199219 629.996094 687.367188 630.105469 C 695.472656 635.320312 697.316406 647.339844 693.015625 666.847656 C 689.464844 682.964844 691.414062 690.894531 691.433594 690.976562 C 691.484375 691.171875 691.367188 691.367188 691.171875 691.417969 C 691.140625 691.429688 691.109375 691.429688 691.078125 691.429688 Z M 691.078125 691.429688 " fill-opacity="1" fill-rule="nonzero"/><path fill="#14284d" d="M 737.390625 597.550781 L 727.800781 604.402344 C 727.378906 604.703125 727.488281 605.359375 727.984375 605.507812 L 761.097656 615.480469 C 761.269531 615.535156 761.460938 615.507812 761.617188 615.410156 L 772.117188 608.601562 C 772.566406 608.3125 772.46875 607.628906 771.953125 607.480469 L 737.929688 597.464844 C 737.742188 597.40625 737.542969 597.441406 737.390625 597.554688 Z M 737.390625 597.550781 " fill-opacity="1" fill-rule="nonzero"/><path fill="#14284d" d="M 720.765625 613.03125 L 718.96875 614.011719 C 718.480469 614.28125 718.558594 615 719.089844 615.160156 L 743.582031 622.476562 C 743.75 622.527344 743.929688 622.503906 744.078125 622.414062 L 745.699219 621.4375 C 746.160156 621.160156 746.074219 620.460938 745.554688 620.308594 L 721.238281 612.980469 C 721.082031 612.933594 720.90625 612.949219 720.761719 613.03125 Z M 720.765625 613.03125 " fill-opacity="1" fill-rule="nonzero"/><path fill="#145893" d="M 684.394531 199.296875 C 683.746094 198.316406 682.496094 197.925781 681.40625 198.367188 C 669.054688 203.417969 599.535156 231.859375 594.480469 234.34375 C 588.929688 237.066406 586.40625 243.828125 588.730469 247.765625 C 591.050781 251.703125 650.183594 320.335938 652.402344 322.761719 C 654.621094 325.1875 658.863281 324.175781 667.199219 321.480469 C 674.636719 319.082031 727.414062 298.550781 738.78125 294.125 C 739.886719 293.691406 740.300781 292.351562 739.640625 291.363281 L 736.894531 287.292969 L 735.214844 281.238281 L 735.695312 281.003906 C 736.683594 280.503906 737.019531 279.253906 736.414062 278.332031 L 684.398438 199.296875 Z M 684.394531 199.296875 " fill-opacity="1" fill-rule="nonzero"/><path fill="#fce8cf" d="M 736.894531 287.296875 L 686.984375 212.277344 C 686.746094 211.925781 686.292969 211.785156 685.898438 211.945312 C 677.789062 215.265625 599.707031 247.261719 598.316406 247.664062 L 596.226562 248.257812 C 595.507812 248.464844 594.789062 247.925781 594.789062 247.175781 L 594.789062 239.15625 C 594.789062 238.683594 595.070312 238.261719 595.507812 238.082031 L 683.539062 201.871094 L 735.214844 281.238281 L 736.894531 287.292969 Z M 736.894531 287.296875 " fill-opacity="1" fill-rule="nonzero"/><path fill="#14284d" d="M 660.476562 321.820312 C 660.222656 321.820312 659.972656 321.710938 659.800781 321.507812 L 602.285156 252.667969 C 601.972656 252.292969 602.023438 251.738281 602.398438 251.429688 C 602.773438 251.117188 603.328125 251.167969 603.636719 251.542969 L 661.152344 320.382812 C 661.464844 320.757812 661.414062 321.3125 661.039062 321.621094 C 660.875 321.757812 660.675781 321.824219 660.476562 321.824219 Z M 660.476562 321.820312 " fill-opacity="1" fill-rule="nonzero"/><path fill="#14284d" d="M 632.300781 248.980469 L 634.335938 252.109375 L 670.160156 237.773438 L 667.941406 234.039062 Z M 632.300781 248.980469 " fill-opacity="1" fill-rule="nonzero"/><path fill="#14284d" d="M 638.074219 265.933594 L 646.953125 278.351562 L 693.570312 260.082031 L 684.085938 247.0625 Z M 638.074219 265.933594 " fill-opacity="1" fill-rule="nonzero"/><path fill="#145893" d="M 1032.441406 331.558594 C 1031.953125 331.507812 1031.484375 331.777344 1031.285156 332.226562 C 1029.136719 337.105469 1017.289062 364.03125 1017.261719 364.503906 C 1017.238281 365.023438 1023.207031 439.804688 1023.398438 441.429688 C 1023.542969 442.695312 1026.730469 445.6875 1031.382812 444.910156 C 1033.832031 444.5 1035.984375 443.066406 1037.464844 441.070312 C 1041.695312 435.367188 1051.222656 420.394531 1053.296875 417.121094 C 1053.558594 416.710938 1053.671875 416.222656 1053.625 415.734375 L 1045.429688 333.621094 C 1045.378906 333.085938 1044.957031 332.664062 1044.421875 332.609375 L 1044.109375 332.578125 C 1043.636719 332.527344 1043.179688 332.777344 1042.96875 333.210938 L 1042.496094 334.1875 L 1033.644531 333.511719 L 1033.433594 332.464844 C 1033.335938 331.980469 1032.933594 331.617188 1032.441406 331.566406 Z M 1032.441406 331.558594 " fill-opacity="1" fill-rule="nonzero"/><path fill="#fce8cf" d="M 1033.644531 333.507812 L 1041.230469 415.136719 L 1025.960938 441.441406 L 1034.105469 440.941406 L 1051.050781 415.019531 L 1042.5 334.1875 Z M 1033.644531 333.507812 " fill-opacity="1" fill-rule="nonzero"/><path fill="#14284d" d="M 1027.453125 349.480469 L 1027.761719 353.46875 L 1021.652344 366.039062 L 1021.429688 362.277344 Z M 1027.453125 349.480469 " fill-opacity="1" fill-rule="nonzero"/><path fill="#14284d" d="M 1030.261719 361.976562 L 1021.832031 378.289062 L 1022.617188 390.214844 L 1031.453125 374.015625 Z M 1030.261719 361.976562 " fill-opacity="1" fill-rule="nonzero"/><path fill="#645b8f" d="M 880.800781 467.601562 C 881.1875 467.023438 881.160156 466.269531 880.730469 465.722656 C 876.070312 459.84375 850.34375 427.394531 849.773438 427.054688 C 849.144531 426.679688 752.144531 384.972656 750 384.140625 C 748.328125 383.492188 742.507812 385.496094 740.414062 391.800781 C 739.316406 395.117188 739.6875 398.742188 741.195312 401.898438 C 745.511719 410.914062 757.890625 432.609375 760.597656 437.34375 C 760.941406 437.941406 761.472656 438.410156 762.109375 438.664062 L 869.691406 482.421875 C 870.390625 482.707031 871.199219 482.464844 871.621094 481.832031 L 871.867188 481.460938 C 872.242188 480.902344 872.226562 480.171875 871.824219 479.625 L 870.921875 478.394531 L 877.578125 467.8125 L 879.023438 468.234375 C 879.691406 468.429688 880.40625 468.171875 880.796875 467.589844 Z M 880.800781 467.601562 " fill-opacity="1" fill-rule="nonzero"/><path fill="#fce8cf" d="M 877.585938 467.816406 L 771.003906 423.628906 L 748.300781 387.316406 L 743.566406 397.792969 L 764.699219 435.929688 L 870.925781 478.398438 Z M 877.585938 467.816406 " fill-opacity="1" fill-rule="nonzero"/><path fill="#54457e" d="M 861.78125 449.605469 L 856.605469 447.375 L 844.976562 431.5 L 849.808594 433.699219 Z M 861.78125 449.605469 " fill-opacity="1" fill-rule="nonzero"/><path fill="#54457e" d="M 844.375 444.898438 L 829.621094 423.683594 L 814.257812 416.824219 L 828.609375 438.464844 Z M 844.375 444.898438 " fill-opacity="1" fill-rule="nonzero"/><path fill="#fce8cf" d="M 318.496094 754.082031 C 302.417969 754.15625 213.890625 754.472656 211.589844 753.140625 C 209.0625 751.671875 210.527344 736.234375 212.257812 736.105469 C 213.855469 735.980469 304.824219 738.453125 319.101562 738.84375 C 318.464844 742.574219 317.855469 748.207031 318.492188 754.082031 Z M 318.496094 754.082031 " fill-opacity="1" fill-rule="nonzero"/><g clip-path="url(#50a05489f4)"><path fill="#f58634" d="M 279.800781 757.070312 C 273.296875 757.070312 266.519531 757.058594 259.863281 757.039062 C 212.269531 756.886719 211.183594 756.261719 210.136719 755.65625 C 205.265625 752.828125 208.210938 738.097656 208.238281 737.949219 C 208.554688 736.59375 209.28125 733.410156 212.042969 733.207031 C 213.511719 733.097656 271.109375 734.628906 319.179688 735.941406 L 321.054688 735.992188 C 322.65625 736.03125 323.921875 737.371094 323.878906 738.96875 C 323.839844 740.570312 322.484375 741.820312 320.90625 741.792969 L 319.019531 741.742188 C 272.988281 740.488281 223.382812 739.171875 213.921875 739.015625 C 213.21875 741.789062 212.824219 748.085938 213.386719 750.503906 C 221.558594 751.25 271.027344 751.382812 318.480469 751.179688 C 320.082031 751.171875 320.960938 751.167969 320.960938 751.167969 C 322.570312 751.167969 323.875 752.449219 323.886719 754.050781 C 323.894531 755.65625 322.605469 756.964844 321.003906 756.976562 C 321.003906 756.976562 320.121094 756.980469 318.507812 756.984375 C 313.019531 757.011719 297.425781 757.070312 279.804688 757.070312 Z M 213.609375 751.148438 Z M 213.609375 751.148438 " fill-opacity="1" fill-rule="nonzero"/></g><path fill="#645b8f" d="M 571.011719 515.421875 C 566.886719 523.804688 556.753906 527.253906 548.378906 523.125 C 540 519.003906 536.550781 508.863281 540.675781 500.488281 C 544.804688 492.105469 554.9375 488.65625 563.3125 492.785156 C 571.691406 496.90625 575.140625 507.046875 571.011719 515.421875 Z M 571.011719 515.421875 " fill-opacity="1" fill-rule="nonzero"/><path fill="#f0c321" d="M 635.746094 546.730469 C 635.746094 550.554688 632.644531 553.65625 628.824219 553.65625 C 625 553.65625 621.902344 550.554688 621.902344 546.730469 C 621.902344 542.910156 625 539.808594 628.824219 539.808594 C 632.644531 539.808594 635.746094 542.910156 635.746094 546.730469 Z M 635.746094 546.730469 " fill-opacity="1" fill-rule="nonzero"/><path fill="#645b8f" d="M 769.871094 528.265625 C 770.449219 536.207031 764.476562 543.109375 756.539062 543.683594 C 748.601562 544.261719 741.699219 538.289062 741.125 530.347656 C 740.550781 522.40625 746.519531 515.503906 754.457031 514.929688 C 762.398438 514.355469 769.296875 520.324219 769.871094 528.265625 Z M 769.871094 528.265625 " fill-opacity="1" fill-rule="nonzero"/><path fill="#645b8f" d="M 706.015625 359.300781 C 706.015625 366.652344 700.054688 372.613281 692.707031 372.613281 C 685.359375 372.613281 679.398438 366.652344 679.398438 359.300781 C 679.398438 351.953125 685.359375 345.992188 692.707031 345.992188 C 700.054688 345.992188 706.015625 351.953125 706.015625 359.300781 Z M 706.015625 359.300781 " fill-opacity="1" fill-rule="nonzero"/><path fill="#f0c321" d="M 883.816406 366.753906 C 882.640625 371.753906 877.636719 374.855469 872.636719 373.675781 C 867.636719 372.5 864.539062 367.496094 865.714844 362.492188 C 866.890625 357.492188 871.898438 354.394531 876.898438 355.570312 C 881.894531 356.746094 884.996094 361.753906 883.816406 366.753906 Z M 883.816406 366.753906 " fill-opacity="1" fill-rule="nonzero"/><path fill="#645b8f" d="M 955.101562 399.976562 C 953.9375 404.390625 949.417969 407.027344 945.003906 405.867188 C 940.589844 404.703125 937.953125 400.179688 939.117188 395.765625 C 940.277344 391.351562 944.796875 388.714844 949.210938 389.875 C 953.625 391.039062 956.261719 395.5625 955.101562 399.976562 Z M 955.101562 399.976562 " fill-opacity="1" fill-rule="nonzero"/><path fill="#645b8f" d="M 1057.355469 275.34375 C 1057.082031 280.050781 1053.050781 283.644531 1048.34375 283.371094 C 1043.636719 283.101562 1040.046875 279.066406 1040.316406 274.359375 C 1040.589844 269.648438 1044.625 266.058594 1049.328125 266.328125 C 1054.035156 266.601562 1057.628906 270.636719 1057.355469 275.34375 Z M 1057.355469 275.34375 " fill-opacity="1" fill-rule="nonzero"/><path fill="#f58634" d="M 1062.550781 145.953125 C 1064.8125 151.871094 1061.851562 158.5 1055.9375 160.761719 C 1050.023438 163.023438 1043.394531 160.0625 1041.132812 154.144531 C 1038.875 148.230469 1041.832031 141.601562 1047.746094 139.339844 C 1053.660156 137.078125 1060.289062 140.039062 1062.550781 145.953125 Z M 1062.550781 145.953125 " fill-opacity="1" fill-rule="nonzero"/><path fill="#645b8f" d="M 1131.890625 127.144531 C 1131.890625 131.261719 1128.554688 134.597656 1124.441406 134.597656 C 1120.324219 134.597656 1116.988281 131.261719 1116.988281 127.144531 C 1116.988281 123.027344 1120.324219 119.691406 1124.441406 119.691406 C 1128.554688 119.691406 1131.890625 123.027344 1131.890625 127.144531 Z M 1131.890625 127.144531 " fill-opacity="1" fill-rule="nonzero"/><path fill="#645b8f" d="M 334.441406 591.460938 C 334.441406 595.871094 330.863281 599.449219 326.453125 599.449219 C 322.046875 599.449219 318.46875 595.871094 318.46875 591.460938 C 318.46875 587.050781 322.046875 583.472656 326.453125 583.472656 C 330.863281 583.472656 334.441406 587.050781 334.441406 591.460938 Z M 334.441406 591.460938 " fill-opacity="1" fill-rule="nonzero"/><path fill="#f58634" d="M 451.542969 700.980469 C 451.816406 705.398438 448.460938 709.191406 444.046875 709.460938 C 439.632812 709.734375 435.835938 706.378906 435.566406 701.964844 C 435.292969 697.550781 438.648438 693.757812 443.0625 693.484375 C 447.476562 693.210938 451.273438 696.566406 451.539062 700.980469 Z M 451.542969 700.980469 " fill-opacity="1" fill-rule="nonzero"/><path fill="#f0c321" d="M 464.320312 579.5625 C 464.589844 582.800781 462.191406 585.648438 458.960938 585.921875 C 455.722656 586.191406 452.875 583.792969 452.601562 580.558594 C 452.332031 577.320312 454.730469 574.476562 457.960938 574.203125 C 461.199219 573.929688 464.046875 576.332031 464.320312 579.5625 Z M 464.320312 579.5625 " fill-opacity="1" fill-rule="nonzero"/><path fill="#f58634" d="M 626.230469 588.542969 C 626.835938 591.183594 625.1875 593.820312 622.542969 594.425781 C 619.902344 595.03125 617.269531 593.382812 616.660156 590.742188 C 616.054688 588.097656 617.703125 585.464844 620.34375 584.855469 C 622.988281 584.25 625.621094 585.898438 626.230469 588.542969 Z M 626.230469 588.542969 " fill-opacity="1" fill-rule="nonzero"/><path fill="#f58634" d="M 724.183594 468.34375 C 724.410156 469.824219 723.398438 471.214844 721.917969 471.441406 C 720.4375 471.664062 719.050781 470.652344 718.824219 469.171875 C 718.597656 467.691406 719.609375 466.304688 721.089844 466.078125 C 722.570312 465.847656 723.957031 466.867188 724.183594 468.34375 Z M 724.183594 468.34375 " fill-opacity="1" fill-rule="nonzero"/><path fill="#f58634" d="M 712.40625 408.292969 C 712.699219 410.9375 710.792969 413.324219 708.148438 413.617188 C 705.5 413.910156 703.117188 412 702.824219 409.355469 C 702.53125 406.707031 704.4375 404.324219 707.082031 404.03125 C 709.730469 403.738281 712.113281 405.644531 712.40625 408.292969 Z M 712.40625 408.292969 " fill-opacity="1" fill-rule="nonzero"/><path fill="#f58634" d="M 626.167969 352.914062 C 626.167969 355.269531 624.261719 357.175781 621.90625 357.175781 C 619.554688 357.175781 617.648438 355.269531 617.648438 352.914062 C 617.648438 350.558594 619.554688 348.652344 621.90625 348.652344 C 624.261719 348.652344 626.167969 350.558594 626.167969 352.914062 Z M 626.167969 352.914062 " fill-opacity="1" fill-rule="nonzero"/><path fill="#f0c321" d="M 752.867188 332.679688 C 753.449219 337.386719 750.117188 341.675781 745.414062 342.265625 C 740.707031 342.851562 736.421875 339.515625 735.832031 334.8125 C 735.246094 330.105469 738.582031 325.820312 743.28125 325.226562 C 747.988281 324.640625 752.273438 327.976562 752.867188 332.679688 Z M 752.867188 332.679688 " fill-opacity="1" fill-rule="nonzero"/><path fill="#f58634" d="M 819.941406 356.105469 C 819.648438 358.753906 817.261719 360.660156 814.617188 360.367188 C 811.96875 360.074219 810.0625 357.6875 810.355469 355.042969 C 810.648438 352.394531 813.035156 350.488281 815.679688 350.78125 C 818.324219 351.074219 820.230469 353.457031 819.941406 356.105469 Z M 819.941406 356.105469 " fill-opacity="1" fill-rule="nonzero"/><path fill="#145893" d="M 812.484375 513.714844 C 809.835938 514.601562 806.976562 513.167969 806.097656 510.519531 C 805.214844 507.871094 806.648438 505.011719 809.292969 504.132812 C 811.9375 503.246094 814.800781 504.679688 815.679688 507.328125 C 816.5625 509.976562 815.128906 512.835938 812.484375 513.714844 Z M 812.484375 513.714844 " fill-opacity="1" fill-rule="nonzero"/><path fill="#f0c321" d="M 910.527344 424.953125 C 909.601562 428.765625 905.761719 431.105469 901.949219 430.179688 C 898.136719 429.253906 895.800781 425.414062 896.726562 421.601562 C 897.648438 417.789062 901.488281 415.449219 905.300781 416.375 C 909.113281 417.300781 911.449219 421.140625 910.527344 424.953125 Z M 910.527344 424.953125 " fill-opacity="1" fill-rule="nonzero"/><path fill="#645b8f" d="M 956.21875 324.160156 C 956.21875 324.71875 956.164062 325.273438 956.058594 325.820312 C 955.949219 326.371094 955.785156 326.902344 955.570312 327.417969 C 955.359375 327.9375 955.09375 328.425781 954.785156 328.894531 C 954.472656 329.359375 954.121094 329.789062 953.726562 330.183594 C 953.328125 330.578125 952.898438 330.933594 952.433594 331.242188 C 951.96875 331.554688 951.476562 331.816406 950.960938 332.03125 C 950.445312 332.246094 949.910156 332.40625 949.363281 332.515625 C 948.816406 332.625 948.261719 332.679688 947.703125 332.679688 C 947.140625 332.679688 946.589844 332.625 946.039062 332.515625 C 945.492188 332.40625 944.957031 332.246094 944.441406 332.03125 C 943.925781 331.816406 943.433594 331.554688 942.96875 331.242188 C 942.503906 330.933594 942.074219 330.578125 941.675781 330.183594 C 941.28125 329.789062 940.929688 329.359375 940.617188 328.894531 C 940.308594 328.425781 940.042969 327.9375 939.832031 327.417969 C 939.617188 326.902344 939.453125 326.371094 939.347656 325.820312 C 939.238281 325.273438 939.183594 324.71875 939.183594 324.160156 C 939.183594 323.597656 939.238281 323.046875 939.347656 322.496094 C 939.453125 321.949219 939.617188 321.414062 939.832031 320.898438 C 940.042969 320.382812 940.308594 319.890625 940.617188 319.425781 C 940.929688 318.960938 941.28125 318.527344 941.675781 318.132812 C 942.074219 317.738281 942.503906 317.382812 942.96875 317.074219 C 943.433594 316.761719 943.925781 316.5 944.441406 316.285156 C 944.957031 316.070312 945.492188 315.910156 946.039062 315.800781 C 946.589844 315.691406 947.140625 315.636719 947.703125 315.636719 C 948.261719 315.636719 948.816406 315.691406 949.363281 315.800781 C 949.910156 315.910156 950.445312 316.070312 950.960938 316.285156 C 951.476562 316.5 951.96875 316.761719 952.433594 317.074219 C 952.898438 317.382812 953.328125 317.738281 953.726562 318.132812 C 954.121094 318.527344 954.472656 318.960938 954.785156 319.425781 C 955.09375 319.890625 955.359375 320.382812 955.570312 320.898438 C 955.785156 321.414062 955.949219 321.949219 956.058594 322.496094 C 956.164062 323.046875 956.21875 323.597656 956.21875 324.160156 Z M 956.21875 324.160156 " fill-opacity="1" fill-rule="nonzero"/><path fill="#f58634" d="M 993.484375 335.871094 C 993.484375 336.1875 993.453125 336.496094 993.390625 336.804688 C 993.328125 337.113281 993.238281 337.414062 993.117188 337.703125 C 992.996094 337.996094 992.851562 338.269531 992.675781 338.53125 C 992.5 338.792969 992.300781 339.035156 992.082031 339.257812 C 991.859375 339.480469 991.617188 339.679688 991.355469 339.855469 C 991.09375 340.027344 990.816406 340.175781 990.527344 340.296875 C 990.234375 340.417969 989.9375 340.507812 989.628906 340.570312 C 989.320312 340.628906 989.007812 340.660156 988.695312 340.660156 C 988.378906 340.660156 988.066406 340.628906 987.757812 340.570312 C 987.453125 340.507812 987.152344 340.417969 986.859375 340.296875 C 986.570312 340.175781 986.292969 340.027344 986.035156 339.855469 C 985.773438 339.679688 985.53125 339.480469 985.308594 339.257812 C 985.085938 339.035156 984.886719 338.792969 984.710938 338.53125 C 984.539062 338.269531 984.390625 337.996094 984.269531 337.703125 C 984.148438 337.414062 984.058594 337.113281 983.996094 336.804688 C 983.9375 336.496094 983.90625 336.1875 983.90625 335.871094 C 983.90625 335.558594 983.9375 335.246094 983.996094 334.9375 C 984.058594 334.628906 984.148438 334.328125 984.269531 334.039062 C 984.390625 333.746094 984.539062 333.472656 984.710938 333.210938 C 984.886719 332.949219 985.085938 332.707031 985.308594 332.484375 C 985.53125 332.261719 985.773438 332.0625 986.035156 331.890625 C 986.292969 331.714844 986.570312 331.566406 986.859375 331.445312 C 987.152344 331.324219 987.453125 331.234375 987.757812 331.171875 C 988.066406 331.113281 988.378906 331.082031 988.695312 331.082031 C 989.007812 331.082031 989.320312 331.113281 989.628906 331.171875 C 989.9375 331.234375 990.234375 331.324219 990.527344 331.445312 C 990.816406 331.566406 991.09375 331.714844 991.355469 331.890625 C 991.617188 332.0625 991.859375 332.261719 992.082031 332.484375 C 992.300781 332.707031 992.5 332.949219 992.675781 333.210938 C 992.851562 333.472656 992.996094 333.746094 993.117188 334.039062 C 993.238281 334.328125 993.328125 334.628906 993.390625 334.9375 C 993.453125 335.246094 993.484375 335.558594 993.484375 335.871094 Z M 993.484375 335.871094 " fill-opacity="1" fill-rule="nonzero"/><path fill="#f58634" d="M 1009.621094 265.851562 C 1010.546875 267.296875 1010.121094 269.214844 1008.675781 270.136719 C 1007.234375 271.0625 1005.316406 270.636719 1004.390625 269.191406 C 1003.464844 267.75 1003.894531 265.832031 1005.335938 264.90625 C 1006.78125 263.980469 1008.695312 264.40625 1009.621094 265.851562 Z M 1009.621094 265.851562 " fill-opacity="1" fill-rule="nonzero"/><path fill="#f0c321" d="M 1077.804688 224.007812 C 1079.28125 227.347656 1077.765625 231.25 1074.429688 232.722656 C 1071.089844 234.199219 1067.191406 232.683594 1065.714844 229.347656 C 1064.242188 226.007812 1065.757812 222.105469 1069.089844 220.628906 C 1072.429688 219.15625 1076.332031 220.671875 1077.804688 224.007812 Z M 1077.804688 224.007812 " fill-opacity="1" fill-rule="nonzero"/><path fill="#f58634" d="M 1048.71875 195.429688 C 1050.003906 196.792969 1049.941406 198.9375 1048.578125 200.222656 C 1047.21875 201.507812 1045.074219 201.445312 1043.792969 200.082031 C 1042.507812 198.71875 1042.566406 196.578125 1043.929688 195.292969 C 1045.292969 194.007812 1047.433594 194.070312 1048.71875 195.429688 Z M 1048.71875 195.429688 " fill-opacity="1" fill-rule="nonzero"/><path fill="#645b8f" d="M 1012.113281 183.585938 C 1009.910156 185.570312 1006.511719 185.390625 1004.53125 183.183594 C 1002.546875 180.980469 1002.726562 177.582031 1004.929688 175.597656 C 1007.136719 173.613281 1010.53125 173.792969 1012.515625 176 C 1014.5 178.203125 1014.316406 181.601562 1012.113281 183.585938 Z M 1012.113281 183.585938 " fill-opacity="1" fill-rule="nonzero"/><path fill="#145893" d="M 1159.042969 152.433594 C 1159.042969 155.300781 1156.71875 157.625 1153.851562 157.625 C 1150.984375 157.625 1148.660156 155.300781 1148.660156 152.433594 C 1148.660156 149.566406 1150.984375 147.242188 1153.851562 147.242188 C 1156.71875 147.242188 1159.042969 149.566406 1159.042969 152.433594 Z M 1159.042969 152.433594 " fill-opacity="1" fill-rule="nonzero"/><path fill="#f0c321" d="M 1201.785156 131.710938 C 1202.097656 131.734375 1202.40625 131.789062 1202.710938 131.871094 C 1203.011719 131.953125 1203.304688 132.066406 1203.585938 132.207031 C 1203.867188 132.347656 1204.132812 132.515625 1204.378906 132.707031 C 1204.628906 132.898438 1204.855469 133.113281 1205.0625 133.351562 C 1205.269531 133.589844 1205.449219 133.84375 1205.605469 134.117188 C 1205.761719 134.390625 1205.886719 134.679688 1205.988281 134.976562 C 1206.085938 135.273438 1206.15625 135.578125 1206.195312 135.890625 C 1206.234375 136.203125 1206.242188 136.515625 1206.222656 136.832031 C 1206.199219 137.144531 1206.144531 137.453125 1206.0625 137.757812 C 1205.980469 138.058594 1205.867188 138.351562 1205.726562 138.632812 C 1205.585938 138.914062 1205.421875 139.179688 1205.226562 139.429688 C 1205.035156 139.675781 1204.820312 139.902344 1204.582031 140.109375 C 1204.34375 140.316406 1204.089844 140.496094 1203.816406 140.652344 C 1203.542969 140.808594 1203.257812 140.933594 1202.957031 141.035156 C 1202.660156 141.132812 1202.355469 141.203125 1202.042969 141.242188 C 1201.730469 141.28125 1201.417969 141.289062 1201.105469 141.269531 C 1200.789062 141.246094 1200.480469 141.195312 1200.179688 141.109375 C 1199.875 141.027344 1199.582031 140.914062 1199.300781 140.773438 C 1199.019531 140.632812 1198.757812 140.46875 1198.507812 140.273438 C 1198.257812 140.082031 1198.03125 139.867188 1197.828125 139.628906 C 1197.621094 139.390625 1197.4375 139.136719 1197.285156 138.863281 C 1197.128906 138.589844 1197 138.304688 1196.902344 138.003906 C 1196.800781 137.707031 1196.730469 137.402344 1196.691406 137.089844 C 1196.652344 136.777344 1196.644531 136.464844 1196.667969 136.152344 C 1196.691406 135.835938 1196.742188 135.527344 1196.824219 135.226562 C 1196.910156 134.921875 1197.019531 134.628906 1197.160156 134.347656 C 1197.300781 134.066406 1197.46875 133.800781 1197.660156 133.554688 C 1197.855469 133.304688 1198.070312 133.078125 1198.308594 132.871094 C 1198.542969 132.664062 1198.800781 132.484375 1199.074219 132.328125 C 1199.347656 132.171875 1199.632812 132.046875 1199.929688 131.945312 C 1200.230469 131.847656 1200.535156 131.777344 1200.84375 131.738281 C 1201.15625 131.699219 1201.46875 131.691406 1201.785156 131.710938 Z M 1201.785156 131.710938 " fill-opacity="1" fill-rule="nonzero"/><path fill="#145893" d="M 1091.171875 443.964844 C 1093.152344 448.152344 1091.367188 453.160156 1087.179688 455.148438 C 1082.992188 457.132812 1077.984375 455.34375 1075.996094 451.152344 C 1074.015625 446.964844 1075.800781 441.960938 1079.988281 439.972656 C 1084.175781 437.988281 1089.1875 439.777344 1091.171875 443.964844 Z M 1091.171875 443.964844 " fill-opacity="1" fill-rule="nonzero"/><path fill="#f58634" d="M 1076.792969 404.828125 C 1077.675781 406.367188 1077.136719 408.335938 1075.597656 409.222656 C 1074.054688 410.105469 1072.085938 409.566406 1071.203125 408.023438 C 1070.320312 406.480469 1070.859375 404.515625 1072.402344 403.628906 C 1073.941406 402.746094 1075.910156 403.285156 1076.792969 404.828125 Z M 1076.792969 404.828125 " fill-opacity="1" fill-rule="nonzero"/><path fill="#145893" d="M 991.355469 462.335938 C 992.238281 464.101562 991.523438 466.25 989.757812 467.128906 C 987.996094 468.011719 985.847656 467.296875 984.96875 465.527344 C 984.085938 463.765625 984.804688 461.617188 986.566406 460.738281 C 988.328125 459.855469 990.476562 460.570312 991.355469 462.335938 Z M 991.355469 462.335938 " fill-opacity="1" fill-rule="nonzero"/><path fill="#f58634" d="M 994.511719 434.984375 C 994.957031 437.191406 993.527344 439.339844 991.324219 439.785156 C 989.121094 440.234375 986.972656 438.804688 986.527344 436.597656 C 986.078125 434.394531 987.507812 432.246094 989.710938 431.800781 C 991.914062 431.351562 994.0625 432.78125 994.511719 434.984375 Z M 994.511719 434.984375 " fill-opacity="1" fill-rule="nonzero"/><path fill="#645b8f" d="M 1070.191406 316.003906 C 1071.675781 317.179688 1071.929688 319.332031 1070.757812 320.824219 C 1069.578125 322.308594 1067.425781 322.566406 1065.9375 321.386719 C 1064.453125 320.210938 1064.195312 318.058594 1065.371094 316.566406 C 1066.546875 315.078125 1068.707031 314.824219 1070.191406 316.003906 Z M 1070.191406 316.003906 " fill-opacity="1" fill-rule="nonzero"/><path fill="#f58634" d="M 838.101562 563.621094 C 836.984375 566.261719 833.9375 567.492188 831.296875 566.371094 C 828.660156 565.25 827.425781 562.203125 828.546875 559.558594 C 829.667969 556.917969 832.714844 555.691406 835.355469 556.8125 C 837.996094 557.929688 839.222656 560.980469 838.101562 563.621094 Z M 838.101562 563.621094 " fill-opacity="1" fill-rule="nonzero"/><path fill="#f58634" d="M 509.847656 438.371094 C 509.847656 440.136719 508.417969 441.570312 506.652344 441.570312 C 504.882812 441.570312 503.457031 440.140625 503.457031 438.371094 C 503.457031 436.605469 504.882812 435.175781 506.652344 435.175781 C 508.417969 435.175781 509.847656 436.605469 509.847656 438.371094 Z M 509.847656 438.371094 " fill-opacity="1" fill-rule="nonzero"/><path fill="#f58634" d="M 464.324219 413.574219 C 464.761719 416.441406 462.789062 419.121094 459.921875 419.558594 C 457.054688 419.992188 454.375 418.023438 453.9375 415.15625 C 453.503906 412.289062 455.476562 409.613281 458.34375 409.175781 C 461.210938 408.738281 463.886719 410.707031 464.324219 413.574219 Z M 464.324219 413.574219 " fill-opacity="1" fill-rule="nonzero"/><path fill="#145893" d="M 284.675781 666.019531 C 287.542969 670.429688 286.292969 676.328125 281.886719 679.195312 C 277.476562 682.0625 271.578125 680.816406 268.710938 676.40625 C 265.84375 671.996094 267.09375 666.09375 271.5 663.226562 C 275.910156 660.359375 281.808594 661.609375 284.675781 666.019531 Z M 284.675781 666.019531 " fill-opacity="1" fill-rule="nonzero"/><path fill="#f58634" d="M 371.675781 718.039062 C 370.808594 722.011719 366.882812 724.527344 362.910156 723.65625 C 358.9375 722.789062 356.425781 718.863281 357.292969 714.890625 C 358.164062 710.917969 362.089844 708.402344 366.058594 709.273438 C 370.03125 710.140625 372.550781 714.066406 371.675781 718.039062 Z M 371.675781 718.039062 " fill-opacity="1" fill-rule="nonzero"/><path fill="#f0c321" d="M 411.636719 734.808594 C 411.863281 737.675781 409.726562 740.1875 406.859375 740.410156 C 403.992188 740.636719 401.484375 738.5 401.257812 735.632812 C 401.03125 732.765625 403.167969 730.257812 406.035156 730.03125 C 408.902344 729.804688 411.410156 731.941406 411.636719 734.808594 Z M 411.636719 734.808594 " fill-opacity="1" fill-rule="nonzero"/><path fill="#f58634" d="M 474.757812 659.433594 C 474.296875 661.191406 472.5 662.246094 470.742188 661.785156 C 468.984375 661.320312 467.929688 659.523438 468.394531 657.765625 C 468.855469 656.007812 470.652344 654.953125 472.410156 655.414062 C 474.167969 655.878906 475.222656 657.675781 474.757812 659.433594 Z M 474.757812 659.433594 " fill-opacity="1" fill-rule="nonzero"/><path fill="#f58634" d="M 514.640625 697.152344 C 514.640625 697.417969 514.589844 697.671875 514.488281 697.917969 C 514.386719 698.164062 514.242188 698.378906 514.058594 698.566406 C 513.871094 698.753906 513.652344 698.898438 513.410156 699 C 513.164062 699.101562 512.910156 699.152344 512.644531 699.152344 C 512.378906 699.152344 512.125 699.101562 511.878906 699 C 511.632812 698.898438 511.417969 698.753906 511.230469 698.566406 C 511.042969 698.378906 510.898438 698.164062 510.796875 697.917969 C 510.695312 697.671875 510.644531 697.417969 510.644531 697.152344 C 510.644531 696.886719 510.695312 696.632812 510.796875 696.386719 C 510.898438 696.144531 511.042969 695.925781 511.230469 695.738281 C 511.417969 695.550781 511.632812 695.40625 511.878906 695.304688 C 512.125 695.203125 512.378906 695.152344 512.644531 695.152344 C 512.910156 695.152344 513.164062 695.203125 513.410156 695.304688 C 513.652344 695.40625 513.871094 695.550781 514.058594 695.738281 C 514.242188 695.925781 514.386719 696.144531 514.488281 696.386719 C 514.589844 696.632812 514.640625 696.886719 514.640625 697.152344 Z M 514.640625 697.152344 " fill-opacity="1" fill-rule="nonzero"/><path fill="#145893" d="M 641.726562 630.441406 C 641.066406 632.648438 638.746094 633.902344 636.535156 633.246094 C 634.332031 632.585938 633.078125 630.261719 633.734375 628.054688 C 634.394531 625.847656 636.714844 624.59375 638.925781 625.253906 C 641.128906 625.910156 642.382812 628.234375 641.726562 630.441406 Z M 641.726562 630.441406 " fill-opacity="1" fill-rule="nonzero"/><path fill="#f58634" d="M 690.996094 572.398438 C 692.089844 573.949219 691.71875 576.09375 690.167969 577.183594 C 688.617188 578.277344 686.472656 577.90625 685.386719 576.355469 C 684.289062 574.804688 684.660156 572.660156 686.210938 571.570312 C 687.765625 570.476562 689.90625 570.847656 690.996094 572.398438 Z M 690.996094 572.398438 " fill-opacity="1" fill-rule="nonzero"/><path fill="#f58634" d="M 662.355469 412.023438 C 659.265625 414.449219 654.800781 413.914062 652.371094 410.824219 C 649.945312 407.734375 650.480469 403.269531 653.570312 400.839844 C 656.65625 398.414062 661.121094 398.949219 663.554688 402.035156 C 665.976562 405.125 665.445312 409.589844 662.355469 412.023438 Z M 662.355469 412.023438 " fill-opacity="1" fill-rule="nonzero"/><path fill="#f58634" d="M 763.761719 258.636719 C 765.082031 261.726562 763.652344 265.300781 760.5625 266.617188 C 757.472656 267.9375 753.898438 266.503906 752.582031 263.414062 C 751.261719 260.328125 752.695312 256.75 755.785156 255.433594 C 758.871094 254.113281 762.449219 255.546875 763.761719 258.636719 Z M 763.761719 258.636719 " fill-opacity="1" fill-rule="nonzero"/><path fill="#f58634" d="M 979.640625 136.730469 C 979.347656 139.667969 976.726562 141.816406 973.78125 141.519531 C 970.84375 141.226562 968.695312 138.605469 968.992188 135.660156 C 969.285156 132.71875 971.90625 130.570312 974.851562 130.871094 C 977.789062 131.164062 979.9375 133.785156 979.640625 136.730469 Z M 979.640625 136.730469 " fill-opacity="1" fill-rule="nonzero"/><path fill="#145893" d="M 1069.078125 103.71875 C 1068.925781 105.039062 1067.734375 105.996094 1066.414062 105.847656 C 1065.089844 105.695312 1064.136719 104.503906 1064.289062 103.183594 C 1064.4375 101.863281 1065.628906 100.90625 1066.949219 101.054688 C 1068.269531 101.203125 1069.226562 102.398438 1069.078125 103.71875 Z M 1069.078125 103.71875 " fill-opacity="1" fill-rule="nonzero"/></svg>